<?xml version="1.0" encoding="utf-8"?>
<!-- Generator: Adobe Illustrator 22.1.0, SVG Export Plug-In . SVG Version: 6.00 Build 0)  -->
<svg version="1.1" xmlns="http://www.w3.org/2000/svg" xmlns:xlink="http://www.w3.org/1999/xlink" x="0px" y="0px"
	 viewBox="0 0 192 192" style="enable-background:new 0 0 192 192;" xml:space="preserve">
<style type="text/css">
	.st0{display:none;}
	.st1{display:inline;}
	.st2{fill:#88CE88;stroke:#88CE88;stroke-width:1.4138;}
	.st3{fill:#88CE88;}
	.st4{fill:#6FA3F7;}
	.st5{fill:#6FA3F7;stroke:#6FA3F7;stroke-width:1.4138;}
	.st6{fill:none;stroke:#595959;stroke-width:1.4138;}
	.st7{fill:#86C3D1;stroke:#86C3D1;stroke-width:1.3954;stroke-miterlimit:10;}
	.st8{fill:#6FA3F7;stroke:#6FA3F7;stroke-width:1.3954;stroke-miterlimit:10;}
	.st9{fill:#D68FD6;stroke:#D68FD6;stroke-width:1.3954;stroke-miterlimit:10;}
	.st10{fill:#86C3D1;}
	.st11{display:inline;fill:#88CE88;stroke:#88CE88;stroke-width:1.4138;}
	.st12{fill:#EDF4F4;}
	.st13{fill:#0066CC;stroke:#055BD6;stroke-width:16.5926;}
	.st14{fill:#055BD6;}
	.st15{fill:#055BD6;stroke:#055BD6;stroke-width:16.5926;}
	.st16{fill:#41B741;}
</style>
<g id="Layer_1" class="st0">
	<g class="st1">
		<line class="st2" x1="82.7" y1="186.7" x2="81.8" y2="186.7"/>
		<line class="st2" x1="90.9" y1="186.7" x2="90.2" y2="186.7"/>
		<line class="st2" x1="94.7" y1="182.2" x2="94.7" y2="181.9"/>
		<line class="st2" x1="94.6" y1="173.9" x2="94.6" y2="173.5"/>
		<line class="st2" x1="94.6" y1="164.4" x2="94.6" y2="164.1"/>
		<line class="st2" x1="109.9" y1="164.1" x2="109.9" y2="164.4"/>
		<line class="st2" x1="109.9" y1="173.5" x2="109.9" y2="173.9"/>
		<line class="st2" x1="110" y1="181.9" x2="110" y2="182.2"/>
		<line class="st2" x1="114.5" y1="186.7" x2="113.7" y2="186.7"/>
		<line class="st2" x1="122.7" y1="186.7" x2="121.9" y2="186.7"/>
		<g>
			<path class="st3" d="M78.2,190.5c-2.1,0-3.8-1.7-3.8-3.8c0-2.1,1.7-3.8,3.8-3.8s3.8,1.7,3.8,3.8C82,188.8,80.3,190.5,78.2,190.5z
				"/>
			<path class="st3" d="M78.2,183.6c1.7,0,3.1,1.4,3.1,3.1s-1.4,3.1-3.1,3.1s-3.1-1.4-3.1-3.1S76.5,183.6,78.2,183.6 M78.2,182.2
				c-2.5,0-4.5,2-4.5,4.5s2,4.5,4.5,4.5s4.5-2,4.5-4.5S80.7,182.2,78.2,182.2L78.2,182.2z"/>
		</g>
		<g>
			<path class="st3" d="M78.2,190.5c-2.1,0-3.8-1.7-3.8-3.8c0-2.1,1.7-3.8,3.8-3.8s3.8,1.7,3.8,3.8C82,188.8,80.3,190.5,78.2,190.5z
				"/>
			<path class="st3" d="M78.2,183.6c1.7,0,3.1,1.4,3.1,3.1s-1.4,3.1-3.1,3.1s-3.1-1.4-3.1-3.1S76.5,183.6,78.2,183.6 M78.2,182.2
				c-2.5,0-4.5,2-4.5,4.5s2,4.5,4.5,4.5s4.5-2,4.5-4.5S80.7,182.2,78.2,182.2L78.2,182.2z"/>
		</g>
		<g>
			<path class="st3" d="M86.4,190.5c-2.1,0-3.8-1.7-3.8-3.8c0-2.1,1.7-3.8,3.8-3.8s3.8,1.7,3.8,3.8
				C90.2,188.8,88.5,190.5,86.4,190.5z"/>
			<path class="st3" d="M86.4,183.6c1.7,0,3.1,1.4,3.1,3.1s-1.4,3.1-3.1,3.1s-3.1-1.4-3.1-3.1S84.7,183.6,86.4,183.6 M86.4,182.2
				c-2.5,0-4.5,2-4.5,4.5s2,4.5,4.5,4.5s4.5-2,4.5-4.5S88.9,182.2,86.4,182.2L86.4,182.2z"/>
		</g>
		<g>
			<path class="st3" d="M86.4,190.5c-2.1,0-3.8-1.7-3.8-3.8c0-2.1,1.7-3.8,3.8-3.8s3.8,1.7,3.8,3.8
				C90.2,188.8,88.5,190.5,86.4,190.5z"/>
			<path class="st3" d="M86.4,183.6c1.7,0,3.1,1.4,3.1,3.1s-1.4,3.1-3.1,3.1s-3.1-1.4-3.1-3.1S84.7,183.6,86.4,183.6 M86.4,182.2
				c-2.5,0-4.5,2-4.5,4.5s2,4.5,4.5,4.5s4.5-2,4.5-4.5S88.9,182.2,86.4,182.2L86.4,182.2z"/>
		</g>
		<g>
			<path class="st3" d="M94.7,190.5c-2.1,0-3.8-1.7-3.8-3.8c0-2.1,1.7-3.8,3.8-3.8s3.8,1.7,3.8,3.8
				C98.5,188.8,96.8,190.5,94.7,190.5z"/>
			<path class="st3" d="M94.7,183.6c1.7,0,3.1,1.4,3.1,3.1s-1.4,3.1-3.1,3.1s-3.1-1.4-3.1-3.1S93,183.6,94.7,183.6 M94.7,182.2
				c-2.5,0-4.5,2-4.5,4.5s2,4.5,4.5,4.5s4.5-2,4.5-4.5S97.2,182.2,94.7,182.2L94.7,182.2z"/>
		</g>
		<g>
			<path class="st3" d="M94.7,190.5c-2.1,0-3.8-1.7-3.8-3.8c0-2.1,1.7-3.8,3.8-3.8s3.8,1.7,3.8,3.8
				C98.5,188.8,96.8,190.5,94.7,190.5z"/>
			<path class="st3" d="M94.7,183.6c1.7,0,3.1,1.4,3.1,3.1s-1.4,3.1-3.1,3.1s-3.1-1.4-3.1-3.1S93,183.6,94.7,183.6 M94.7,182.2
				c-2.5,0-4.5,2-4.5,4.5s2,4.5,4.5,4.5s4.5-2,4.5-4.5S97.2,182.2,94.7,182.2L94.7,182.2z"/>
		</g>
		<g>
			<path class="st3" d="M94.6,181.8c-2.1,0-3.8-1.7-3.8-3.8c0-2.1,1.7-3.8,3.8-3.8s3.8,1.7,3.8,3.8
				C98.4,180.1,96.7,181.8,94.6,181.8z"/>
			<path class="st3" d="M94.6,174.9c1.7,0,3.1,1.4,3.1,3.1s-1.4,3.1-3.1,3.1c-1.7,0-3.1-1.4-3.1-3.1S92.9,174.9,94.6,174.9
				 M94.6,173.5c-2.5,0-4.5,2-4.5,4.5s2,4.5,4.5,4.5c2.5,0,4.5-2,4.5-4.5S97.1,173.5,94.6,173.5L94.6,173.5z"/>
		</g>
		<g>
			<path class="st3" d="M94.6,181.8c-2.1,0-3.8-1.7-3.8-3.8c0-2.1,1.7-3.8,3.8-3.8s3.8,1.7,3.8,3.8
				C98.4,180.1,96.7,181.8,94.6,181.8z"/>
			<path class="st3" d="M94.6,174.9c1.7,0,3.1,1.4,3.1,3.1s-1.4,3.1-3.1,3.1c-1.7,0-3.1-1.4-3.1-3.1S92.9,174.9,94.6,174.9
				 M94.6,173.5c-2.5,0-4.5,2-4.5,4.5s2,4.5,4.5,4.5c2.5,0,4.5-2,4.5-4.5S97.1,173.5,94.6,173.5L94.6,173.5z"/>
		</g>
		<g>
			<path class="st3" d="M94.6,172.8c-2.1,0-3.8-1.7-3.8-3.8c0-2.1,1.7-3.8,3.8-3.8s3.8,1.7,3.8,3.8
				C98.4,171.1,96.7,172.8,94.6,172.8z"/>
			<path class="st3" d="M94.6,165.8c1.7,0,3.1,1.4,3.1,3.1c0,1.7-1.4,3.1-3.1,3.1c-1.7,0-3.1-1.4-3.1-3.1
				C91.5,167.2,92.9,165.8,94.6,165.8 M94.6,164.4c-2.5,0-4.5,2-4.5,4.5s2,4.5,4.5,4.5c2.5,0,4.5-2,4.5-4.5S97.1,164.4,94.6,164.4
				L94.6,164.4z"/>
		</g>
		<g>
			<path class="st3" d="M94.6,172.8c-2.1,0-3.8-1.7-3.8-3.8c0-2.1,1.7-3.8,3.8-3.8s3.8,1.7,3.8,3.8
				C98.4,171.1,96.7,172.8,94.6,172.8z"/>
			<path class="st3" d="M94.6,165.8c1.7,0,3.1,1.4,3.1,3.1c0,1.7-1.4,3.1-3.1,3.1c-1.7,0-3.1-1.4-3.1-3.1
				C91.5,167.2,92.9,165.8,94.6,165.8 M94.6,164.4c-2.5,0-4.5,2-4.5,4.5s2,4.5,4.5,4.5c2.5,0,4.5-2,4.5-4.5S97.1,164.4,94.6,164.4
				L94.6,164.4z"/>
		</g>
		<g>
			<path class="st3" d="M109.9,172.8c-2.1,0-3.8-1.7-3.8-3.8c0-2.1,1.7-3.8,3.8-3.8c2.1,0,3.8,1.7,3.8,3.8
				C113.7,171.1,112,172.8,109.9,172.8z"/>
			<path class="st3" d="M109.9,165.8c1.7,0,3.1,1.4,3.1,3.1c0,1.7-1.4,3.1-3.1,3.1s-3.1-1.4-3.1-3.1
				C106.8,167.2,108.2,165.8,109.9,165.8 M109.9,164.4c-2.5,0-4.5,2-4.5,4.5s2,4.5,4.5,4.5s4.5-2,4.5-4.5S112.4,164.4,109.9,164.4
				L109.9,164.4z"/>
		</g>
		<g>
			<path class="st3" d="M109.9,172.8c-2.1,0-3.8-1.7-3.8-3.8c0-2.1,1.7-3.8,3.8-3.8c2.1,0,3.8,1.7,3.8,3.8
				C113.7,171.1,112,172.8,109.9,172.8z"/>
			<path class="st3" d="M109.9,165.8c1.7,0,3.1,1.4,3.1,3.1c0,1.7-1.4,3.1-3.1,3.1s-3.1-1.4-3.1-3.1
				C106.8,167.2,108.2,165.8,109.9,165.8 M109.9,164.4c-2.5,0-4.5,2-4.5,4.5s2,4.5,4.5,4.5s4.5-2,4.5-4.5S112.4,164.4,109.9,164.4
				L109.9,164.4z"/>
		</g>
		<g>
			<path class="st3" d="M109.9,181.8c-2.1,0-3.8-1.7-3.8-3.8c0-2.1,1.7-3.8,3.8-3.8c2.1,0,3.8,1.7,3.8,3.8
				C113.7,180.1,112,181.8,109.9,181.8z"/>
			<path class="st3" d="M109.9,174.9c1.7,0,3.1,1.4,3.1,3.1s-1.4,3.1-3.1,3.1s-3.1-1.4-3.1-3.1S108.2,174.9,109.9,174.9
				 M109.9,173.5c-2.5,0-4.5,2-4.5,4.5s2,4.5,4.5,4.5s4.5-2,4.5-4.5S112.4,173.5,109.9,173.5L109.9,173.5z"/>
		</g>
		<g>
			<path class="st3" d="M109.9,181.8c-2.1,0-3.8-1.7-3.8-3.8c0-2.1,1.7-3.8,3.8-3.8c2.1,0,3.8,1.7,3.8,3.8
				C113.7,180.1,112,181.8,109.9,181.8z"/>
			<path class="st3" d="M109.9,174.9c1.7,0,3.1,1.4,3.1,3.1s-1.4,3.1-3.1,3.1s-3.1-1.4-3.1-3.1S108.2,174.9,109.9,174.9
				 M109.9,173.5c-2.5,0-4.5,2-4.5,4.5s2,4.5,4.5,4.5s4.5-2,4.5-4.5S112.4,173.5,109.9,173.5L109.9,173.5z"/>
		</g>
		<g>
			<path class="st3" d="M110,190.5c-2.1,0-3.8-1.7-3.8-3.8c0-2.1,1.7-3.8,3.8-3.8c2.1,0,3.8,1.7,3.8,3.8
				C113.8,188.8,112.1,190.5,110,190.5z"/>
			<path class="st3" d="M110,183.6c1.7,0,3.1,1.4,3.1,3.1s-1.4,3.1-3.1,3.1c-1.7,0-3.1-1.4-3.1-3.1S108.3,183.6,110,183.6
				 M110,182.2c-2.5,0-4.5,2-4.5,4.5s2,4.5,4.5,4.5c2.5,0,4.5-2,4.5-4.5S112.5,182.2,110,182.2L110,182.2z"/>
		</g>
		<g>
			<path class="st3" d="M110,190.5c-2.1,0-3.8-1.7-3.8-3.8c0-2.1,1.7-3.8,3.8-3.8c2.1,0,3.8,1.7,3.8,3.8
				C113.8,188.8,112.1,190.5,110,190.5z"/>
			<path class="st3" d="M110,183.6c1.7,0,3.1,1.4,3.1,3.1s-1.4,3.1-3.1,3.1c-1.7,0-3.1-1.4-3.1-3.1S108.3,183.6,110,183.6
				 M110,182.2c-2.5,0-4.5,2-4.5,4.5s2,4.5,4.5,4.5c2.5,0,4.5-2,4.5-4.5S112.5,182.2,110,182.2L110,182.2z"/>
		</g>
		<g>
			<path class="st3" d="M118.2,190.5c-2.1,0-3.8-1.7-3.8-3.8c0-2.1,1.7-3.8,3.8-3.8c2.1,0,3.8,1.7,3.8,3.8
				C122,188.8,120.3,190.5,118.2,190.5z"/>
			<path class="st3" d="M118.2,183.6c1.7,0,3.1,1.4,3.1,3.1s-1.4,3.1-3.1,3.1s-3.1-1.4-3.1-3.1S116.5,183.6,118.2,183.6
				 M118.2,182.2c-2.5,0-4.5,2-4.5,4.5s2,4.5,4.5,4.5s4.5-2,4.5-4.5S120.7,182.2,118.2,182.2L118.2,182.2z"/>
		</g>
		<g>
			<path class="st3" d="M118.2,190.5c-2.1,0-3.8-1.7-3.8-3.8c0-2.1,1.7-3.8,3.8-3.8c2.1,0,3.8,1.7,3.8,3.8
				C122,188.8,120.3,190.5,118.2,190.5z"/>
			<path class="st3" d="M118.2,183.6c1.7,0,3.1,1.4,3.1,3.1s-1.4,3.1-3.1,3.1s-3.1-1.4-3.1-3.1S116.5,183.6,118.2,183.6
				 M118.2,182.2c-2.5,0-4.5,2-4.5,4.5s2,4.5,4.5,4.5s4.5-2,4.5-4.5S120.7,182.2,118.2,182.2L118.2,182.2z"/>
		</g>
		<g>
			<path class="st3" d="M126.4,190.5c-2.1,0-3.8-1.7-3.8-3.8c0-2.1,1.7-3.8,3.8-3.8s3.8,1.7,3.8,3.8
				C130.2,188.8,128.5,190.5,126.4,190.5z"/>
			<path class="st3" d="M126.4,183.6c1.7,0,3.1,1.4,3.1,3.1s-1.4,3.1-3.1,3.1c-1.7,0-3.1-1.4-3.1-3.1S124.7,183.6,126.4,183.6
				 M126.4,182.2c-2.5,0-4.5,2-4.5,4.5s2,4.5,4.5,4.5c2.5,0,4.5-2,4.5-4.5S128.9,182.2,126.4,182.2L126.4,182.2z"/>
		</g>
		<g>
			<path class="st3" d="M126.4,190.5c-2.1,0-3.8-1.7-3.8-3.8c0-2.1,1.7-3.8,3.8-3.8s3.8,1.7,3.8,3.8
				C130.2,188.8,128.5,190.5,126.4,190.5z"/>
			<path class="st3" d="M126.4,183.6c1.7,0,3.1,1.4,3.1,3.1s-1.4,3.1-3.1,3.1c-1.7,0-3.1-1.4-3.1-3.1S124.7,183.6,126.4,183.6
				 M126.4,182.2c-2.5,0-4.5,2-4.5,4.5s2,4.5,4.5,4.5c2.5,0,4.5-2,4.5-4.5S128.9,182.2,126.4,182.2L126.4,182.2z"/>
		</g>
		<g>
			<circle class="st4" cx="142.6" cy="36" r="3.8"/>
			<path class="st4" d="M142.6,32.9c1.7,0,3.1,1.4,3.1,3.1s-1.4,3.1-3.1,3.1s-3.1-1.4-3.1-3.1S140.8,32.9,142.6,32.9 M142.6,31.5
				c-2.5,0-4.5,2-4.5,4.5c0,2.5,2,4.5,4.5,4.5s4.5-2,4.5-4.5C147.1,33.5,145.1,31.5,142.6,31.5L142.6,31.5z"/>
		</g>
		<line class="st5" x1="152.3" y1="26.1" x2="152.6" y2="25.8"/>
		<line class="st5" x1="159" y1="19.4" x2="159.2" y2="19.2"/>
		<line class="st5" x1="164.2" y1="11.8" x2="163.9" y2="12.5"/>
		<line class="st5" x1="169.8" y1="6.7" x2="169.1" y2="7"/>
		<line class="st5" x1="177.5" y1="7" x2="176.6" y2="6.7"/>
		<line class="st5" x1="182.6" y1="12.5" x2="182.3" y2="11.8"/>
		<line class="st5" x1="182.3" y1="20.1" x2="182.6" y2="19.4"/>
		<line class="st5" x1="176.8" y1="25.4" x2="177.5" y2="25.1"/>
		<line class="st5" x1="170.1" y1="30" x2="169.8" y2="30.2"/>
		<line class="st5" x1="163.5" y1="36.7" x2="163.2" y2="37"/>
		<g>
			<path class="st4" d="M149.2,33.1c-2.1,0-3.8-1.7-3.8-3.8s1.7-3.8,3.8-3.8c2.1,0,3.8,1.7,3.8,3.8S151.3,33.1,149.2,33.1z"/>
			<path class="st4" d="M149.2,26.2c1.7,0,3.1,1.4,3.1,3.1s-1.4,3.1-3.1,3.1s-3.1-1.4-3.1-3.1S147.5,26.2,149.2,26.2 M149.2,24.8
				c-2.5,0-4.5,2-4.5,4.5c0,2.5,2,4.5,4.5,4.5c2.5,0,4.5-2,4.5-4.5C153.7,26.8,151.7,24.8,149.2,24.8L149.2,24.8z"/>
		</g>
		<g>
			<path class="st4" d="M149.2,33.1c-2.1,0-3.8-1.7-3.8-3.8s1.7-3.8,3.8-3.8c2.1,0,3.8,1.7,3.8,3.8S151.3,33.1,149.2,33.1z"/>
			<path class="st4" d="M149.2,26.2c1.7,0,3.1,1.4,3.1,3.1s-1.4,3.1-3.1,3.1s-3.1-1.4-3.1-3.1S147.5,26.2,149.2,26.2 M149.2,24.8
				c-2.5,0-4.5,2-4.5,4.5c0,2.5,2,4.5,4.5,4.5c2.5,0,4.5-2,4.5-4.5C153.7,26.8,151.7,24.8,149.2,24.8L149.2,24.8z"/>
		</g>
		<g>
			<path class="st4" d="M155.8,26.5c-2.1,0-3.8-1.7-3.8-3.8s1.7-3.8,3.8-3.8c2.1,0,3.8,1.7,3.8,3.8S157.9,26.5,155.8,26.5z"/>
			<path class="st4" d="M155.8,19.6c1.7,0,3.1,1.4,3.1,3.1s-1.4,3.1-3.1,3.1c-1.7,0-3.1-1.4-3.1-3.1S154.1,19.6,155.8,19.6
				 M155.8,18.2c-2.5,0-4.5,2-4.5,4.5c0,2.5,2,4.5,4.5,4.5s4.5-2,4.5-4.5C160.4,20.2,158.3,18.2,155.8,18.2L155.8,18.2z"/>
		</g>
		<g>
			<path class="st4" d="M155.8,26.5c-2.1,0-3.8-1.7-3.8-3.8s1.7-3.8,3.8-3.8c2.1,0,3.8,1.7,3.8,3.8S157.9,26.5,155.8,26.5z"/>
			<path class="st4" d="M155.8,19.6c1.7,0,3.1,1.4,3.1,3.1s-1.4,3.1-3.1,3.1c-1.7,0-3.1-1.4-3.1-3.1S154.1,19.6,155.8,19.6
				 M155.8,18.2c-2.5,0-4.5,2-4.5,4.5c0,2.5,2,4.5,4.5,4.5s4.5-2,4.5-4.5C160.4,20.2,158.3,18.2,155.8,18.2L155.8,18.2z"/>
		</g>
		<g>
			<path class="st4" d="M162.5,19.9c-2.1,0-3.8-1.7-3.8-3.8c0-2.1,1.7-3.8,3.8-3.8c2.1,0,3.8,1.7,3.8,3.8
				C166.3,18.1,164.6,19.9,162.5,19.9z"/>
			<path class="st4" d="M162.5,12.9c1.7,0,3.1,1.4,3.1,3.1s-1.4,3.1-3.1,3.1s-3.1-1.4-3.1-3.1S160.8,12.9,162.5,12.9 M162.5,11.5
				c-2.5,0-4.5,2-4.5,4.5c0,2.5,2,4.5,4.5,4.5s4.5-2,4.5-4.5C167,13.5,165,11.5,162.5,11.5L162.5,11.5z"/>
		</g>
		<g>
			<path class="st4" d="M162.5,19.9c-2.1,0-3.8-1.7-3.8-3.8c0-2.1,1.7-3.8,3.8-3.8c2.1,0,3.8,1.7,3.8,3.8
				C166.3,18.1,164.6,19.9,162.5,19.9z"/>
			<path class="st4" d="M162.5,12.9c1.7,0,3.1,1.4,3.1,3.1s-1.4,3.1-3.1,3.1s-3.1-1.4-3.1-3.1S160.8,12.9,162.5,12.9 M162.5,11.5
				c-2.5,0-4.5,2-4.5,4.5c0,2.5,2,4.5,4.5,4.5s4.5-2,4.5-4.5C167,13.5,165,11.5,162.5,11.5L162.5,11.5z"/>
		</g>
		<g>
			<path class="st4" d="M165.6,12.2c-2.1,0-3.8-1.7-3.8-3.8c0-2.1,1.7-3.8,3.8-3.8c2.1,0,3.8,1.7,3.8,3.8
				C169.4,10.5,167.7,12.2,165.6,12.2z"/>
			<path class="st4" d="M165.6,5.3c1.7,0,3.1,1.4,3.1,3.1c0,1.7-1.4,3.1-3.1,3.1s-3.1-1.4-3.1-3.1C162.5,6.7,163.9,5.3,165.6,5.3
				 M165.6,3.9c-2.5,0-4.5,2-4.5,4.5c0,2.5,2,4.5,4.5,4.5s4.5-2,4.5-4.5C170.1,5.9,168.1,3.9,165.6,3.9L165.6,3.9z"/>
		</g>
		<g>
			<path class="st4" d="M165.6,12.2c-2.1,0-3.8-1.7-3.8-3.8c0-2.1,1.7-3.8,3.8-3.8c2.1,0,3.8,1.7,3.8,3.8
				C169.4,10.5,167.7,12.2,165.6,12.2z"/>
			<path class="st4" d="M165.6,5.3c1.7,0,3.1,1.4,3.1,3.1c0,1.7-1.4,3.1-3.1,3.1s-3.1-1.4-3.1-3.1C162.5,6.7,163.9,5.3,165.6,5.3
				 M165.6,3.9c-2.5,0-4.5,2-4.5,4.5c0,2.5,2,4.5,4.5,4.5s4.5-2,4.5-4.5C170.1,5.9,168.1,3.9,165.6,3.9L165.6,3.9z"/>
		</g>
		<g>
			<path class="st4" d="M173.2,9.1c-2.1,0-3.8-1.7-3.8-3.8s1.7-3.8,3.8-3.8c2.1,0,3.8,1.7,3.8,3.8S175.3,9.1,173.2,9.1z"/>
			<path class="st4" d="M173.2,2.2c1.7,0,3.1,1.4,3.1,3.1c0,1.7-1.4,3.1-3.1,3.1s-3.1-1.4-3.1-3.1C170.1,3.6,171.5,2.2,173.2,2.2
				 M173.2,0.8c-2.5,0-4.5,2-4.5,4.5c0,2.5,2,4.5,4.5,4.5s4.5-2,4.5-4.5C177.8,2.8,175.7,0.8,173.2,0.8L173.2,0.8z"/>
		</g>
		<g>
			<path class="st4" d="M173.2,9.1c-2.1,0-3.8-1.7-3.8-3.8s1.7-3.8,3.8-3.8c2.1,0,3.8,1.7,3.8,3.8S175.3,9.1,173.2,9.1z"/>
			<path class="st4" d="M173.2,2.2c1.7,0,3.1,1.4,3.1,3.1c0,1.7-1.4,3.1-3.1,3.1s-3.1-1.4-3.1-3.1C170.1,3.6,171.5,2.2,173.2,2.2
				 M173.2,0.8c-2.5,0-4.5,2-4.5,4.5c0,2.5,2,4.5,4.5,4.5s4.5-2,4.5-4.5C177.8,2.8,175.7,0.8,173.2,0.8L173.2,0.8z"/>
		</g>
		<g>
			<path class="st4" d="M180.9,12.2c-2.1,0-3.8-1.7-3.8-3.8c0-2.1,1.7-3.8,3.8-3.8c2.1,0,3.8,1.7,3.8,3.8
				C184.7,10.5,183,12.2,180.9,12.2z"/>
			<path class="st4" d="M180.9,5.3c1.7,0,3.1,1.4,3.1,3.1c0,1.7-1.4,3.1-3.1,3.1s-3.1-1.4-3.1-3.1C177.8,6.7,179.2,5.3,180.9,5.3
				 M180.9,3.9c-2.5,0-4.5,2-4.5,4.5c0,2.5,2,4.5,4.5,4.5s4.5-2,4.5-4.5C185.4,5.9,183.4,3.9,180.9,3.9L180.9,3.9z"/>
		</g>
		<g>
			<path class="st4" d="M180.9,12.2c-2.1,0-3.8-1.7-3.8-3.8c0-2.1,1.7-3.8,3.8-3.8c2.1,0,3.8,1.7,3.8,3.8
				C184.7,10.5,183,12.2,180.9,12.2z"/>
			<path class="st4" d="M180.9,5.3c1.7,0,3.1,1.4,3.1,3.1c0,1.7-1.4,3.1-3.1,3.1s-3.1-1.4-3.1-3.1C177.8,6.7,179.2,5.3,180.9,5.3
				 M180.9,3.9c-2.5,0-4.5,2-4.5,4.5c0,2.5,2,4.5,4.5,4.5s4.5-2,4.5-4.5C185.4,5.9,183.4,3.9,180.9,3.9L180.9,3.9z"/>
		</g>
		<g>
			<path class="st4" d="M184,19.9c-2.1,0-3.8-1.7-3.8-3.8c0-2.1,1.7-3.8,3.8-3.8c2.1,0,3.8,1.7,3.8,3.8
				C187.8,18.1,186.1,19.9,184,19.9z"/>
			<path class="st4" d="M184,12.9c1.7,0,3.1,1.4,3.1,3.1s-1.4,3.1-3.1,3.1s-3.1-1.4-3.1-3.1S182.3,12.9,184,12.9 M184,11.5
				c-2.5,0-4.5,2-4.5,4.5c0,2.5,2,4.5,4.5,4.5c2.5,0,4.5-2,4.5-4.5C188.5,13.5,186.5,11.5,184,11.5L184,11.5z"/>
		</g>
		<g>
			<path class="st4" d="M184,19.9c-2.1,0-3.8-1.7-3.8-3.8c0-2.1,1.7-3.8,3.8-3.8c2.1,0,3.8,1.7,3.8,3.8
				C187.8,18.1,186.1,19.9,184,19.9z"/>
			<path class="st4" d="M184,12.9c1.7,0,3.1,1.4,3.1,3.1s-1.4,3.1-3.1,3.1s-3.1-1.4-3.1-3.1S182.3,12.9,184,12.9 M184,11.5
				c-2.5,0-4.5,2-4.5,4.5c0,2.5,2,4.5,4.5,4.5c2.5,0,4.5-2,4.5-4.5C188.5,13.5,186.5,11.5,184,11.5L184,11.5z"/>
		</g>
		<g>
			<path class="st4" d="M180.9,27.5c-2.1,0-3.8-1.7-3.8-3.8c0-2.1,1.7-3.8,3.8-3.8c2.1,0,3.8,1.7,3.8,3.8
				C184.7,25.8,183,27.5,180.9,27.5z"/>
			<path class="st4" d="M180.9,20.6c1.7,0,3.1,1.4,3.1,3.1s-1.4,3.1-3.1,3.1s-3.1-1.4-3.1-3.1S179.2,20.6,180.9,20.6 M180.9,19.2
				c-2.5,0-4.5,2-4.5,4.5c0,2.5,2,4.5,4.5,4.5s4.5-2,4.5-4.5C185.4,21.2,183.4,19.2,180.9,19.2L180.9,19.2z"/>
		</g>
		<g>
			<path class="st4" d="M180.9,27.5c-2.1,0-3.8-1.7-3.8-3.8c0-2.1,1.7-3.8,3.8-3.8c2.1,0,3.8,1.7,3.8,3.8
				C184.7,25.8,183,27.5,180.9,27.5z"/>
			<path class="st4" d="M180.9,20.6c1.7,0,3.1,1.4,3.1,3.1s-1.4,3.1-3.1,3.1s-3.1-1.4-3.1-3.1S179.2,20.6,180.9,20.6 M180.9,19.2
				c-2.5,0-4.5,2-4.5,4.5c0,2.5,2,4.5,4.5,4.5s4.5-2,4.5-4.5C185.4,21.2,183.4,19.2,180.9,19.2L180.9,19.2z"/>
		</g>
		<g>
			<path class="st4" d="M173.2,30.6c-2.1,0-3.8-1.7-3.8-3.8c0-2.1,1.7-3.8,3.8-3.8c2.1,0,3.8,1.7,3.8,3.8
				C177,28.9,175.3,30.6,173.2,30.6z"/>
			<path class="st4" d="M173.2,23.7c1.7,0,3.1,1.4,3.1,3.1s-1.4,3.1-3.1,3.1s-3.1-1.4-3.1-3.1S171.5,23.7,173.2,23.7 M173.2,22.3
				c-2.5,0-4.5,2-4.5,4.5c0,2.5,2,4.5,4.5,4.5s4.5-2,4.5-4.5C177.8,24.3,175.7,22.3,173.2,22.3L173.2,22.3z"/>
		</g>
		<g>
			<path class="st4" d="M173.2,30.6c-2.1,0-3.8-1.7-3.8-3.8c0-2.1,1.7-3.8,3.8-3.8c2.1,0,3.8,1.7,3.8,3.8
				C177,28.9,175.3,30.6,173.2,30.6z"/>
			<path class="st4" d="M173.2,23.7c1.7,0,3.1,1.4,3.1,3.1s-1.4,3.1-3.1,3.1s-3.1-1.4-3.1-3.1S171.5,23.7,173.2,23.7 M173.2,22.3
				c-2.5,0-4.5,2-4.5,4.5c0,2.5,2,4.5,4.5,4.5s4.5-2,4.5-4.5C177.8,24.3,175.7,22.3,173.2,22.3L173.2,22.3z"/>
		</g>
		<g>
			<path class="st4" d="M166.6,37.3c-2.1,0-3.8-1.7-3.8-3.8c0-2.1,1.7-3.8,3.8-3.8c2.1,0,3.8,1.7,3.8,3.8
				C170.4,35.5,168.7,37.3,166.6,37.3z"/>
			<path class="st4" d="M166.6,30.3c1.7,0,3.1,1.4,3.1,3.1s-1.4,3.1-3.1,3.1s-3.1-1.4-3.1-3.1S164.9,30.3,166.6,30.3 M166.6,28.9
				c-2.5,0-4.5,2-4.5,4.5c0,2.5,2,4.5,4.5,4.5s4.5-2,4.5-4.5C171.1,30.9,169.1,28.9,166.6,28.9L166.6,28.9z"/>
		</g>
		<g>
			<path class="st4" d="M166.6,37.3c-2.1,0-3.8-1.7-3.8-3.8c0-2.1,1.7-3.8,3.8-3.8c2.1,0,3.8,1.7,3.8,3.8
				C170.4,35.5,168.7,37.3,166.6,37.3z"/>
			<path class="st4" d="M166.6,30.3c1.7,0,3.1,1.4,3.1,3.1s-1.4,3.1-3.1,3.1s-3.1-1.4-3.1-3.1S164.9,30.3,166.6,30.3 M166.6,28.9
				c-2.5,0-4.5,2-4.5,4.5c0,2.5,2,4.5,4.5,4.5s4.5-2,4.5-4.5C171.1,30.9,169.1,28.9,166.6,28.9L166.6,28.9z"/>
		</g>
		<g>
			<path class="st4" d="M159.9,43.9c-2.1,0-3.8-1.7-3.8-3.8s1.7-3.8,3.8-3.8c2.1,0,3.8,1.7,3.8,3.8S162,43.9,159.9,43.9z"/>
			<path class="st4" d="M159.9,37c1.7,0,3.1,1.4,3.1,3.1s-1.4,3.1-3.1,3.1s-3.1-1.4-3.1-3.1S158.2,37,159.9,37 M159.9,35.6
				c-2.5,0-4.5,2-4.5,4.5c0,2.5,2,4.5,4.5,4.5s4.5-2,4.5-4.5C164.5,37.6,162.4,35.6,159.9,35.6L159.9,35.6z"/>
		</g>
		<g>
			<path class="st4" d="M159.9,43.9c-2.1,0-3.8-1.7-3.8-3.8s1.7-3.8,3.8-3.8c2.1,0,3.8,1.7,3.8,3.8S162,43.9,159.9,43.9z"/>
			<path class="st4" d="M159.9,37c1.7,0,3.1,1.4,3.1,3.1s-1.4,3.1-3.1,3.1s-3.1-1.4-3.1-3.1S158.2,37,159.9,37 M159.9,35.6
				c-2.5,0-4.5,2-4.5,4.5c0,2.5,2,4.5,4.5,4.5s4.5-2,4.5-4.5C164.5,37.6,162.4,35.6,159.9,35.6L159.9,35.6z"/>
		</g>
		<g>
			<path class="st4" d="M153.3,50.5c-2.1,0-3.8-1.7-3.8-3.8s1.7-3.8,3.8-3.8c2.1,0,3.8,1.7,3.8,3.8S155.4,50.5,153.3,50.5z"/>
			<path class="st4" d="M153.3,43.6c1.7,0,3.1,1.4,3.1,3.1c0,1.7-1.4,3.1-3.1,3.1s-3.1-1.4-3.1-3.1C150.2,45,151.6,43.6,153.3,43.6
				 M153.3,42.2c-2.5,0-4.5,2-4.5,4.5c0,2.5,2,4.5,4.5,4.5s4.5-2,4.5-4.5C157.8,44.2,155.8,42.2,153.3,42.2L153.3,42.2z"/>
		</g>
		<g>
			<path class="st4" d="M153.3,50.5c-2.1,0-3.8-1.7-3.8-3.8s1.7-3.8,3.8-3.8c2.1,0,3.8,1.7,3.8,3.8S155.4,50.5,153.3,50.5z"/>
			<path class="st4" d="M153.3,43.6c1.7,0,3.1,1.4,3.1,3.1c0,1.7-1.4,3.1-3.1,3.1s-3.1-1.4-3.1-3.1C150.2,45,151.6,43.6,153.3,43.6
				 M153.3,42.2c-2.5,0-4.5,2-4.5,4.5c0,2.5,2,4.5,4.5,4.5s4.5-2,4.5-4.5C157.8,44.2,155.8,42.2,153.3,42.2L153.3,42.2z"/>
		</g>
		<g>
			<circle class="st4" cx="142.6" cy="36" r="3.8"/>
			<path class="st4" d="M142.6,32.9c1.7,0,3.1,1.4,3.1,3.1s-1.4,3.1-3.1,3.1s-3.1-1.4-3.1-3.1S140.8,32.9,142.6,32.9 M142.6,31.5
				c-2.5,0-4.5,2-4.5,4.5c0,2.5,2,4.5,4.5,4.5s4.5-2,4.5-4.5C147.1,33.5,145.1,31.5,142.6,31.5L142.6,31.5z"/>
		</g>
		<line class="st2" x1="94.6" y1="165.5" x2="94.6" y2="165.2"/>
		<line class="st2" x1="94.6" y1="156.2" x2="94.6" y2="155.8"/>
		<line class="st2" x1="94.6" y1="137.7" x2="94.6" y2="137.4"/>
		<line class="st6" x1="94.6" y1="119.4" x2="94.6" y2="119"/>
		<line class="st7" x1="90.4" y1="112.7" x2="92.1" y2="113.3"/>
		<line class="st7" x1="84.3" y1="108.8" x2="85.7" y2="109.9"/>
		<line class="st7" x1="79.4" y1="103.6" x2="80.5" y2="105"/>
		<line class="st7" x1="75.8" y1="97.2" x2="76.5" y2="98.9"/>
		<line class="st7" x1="70.3" y1="94.6" x2="69.9" y2="94.6"/>
		<line class="st7" x1="60.8" y1="94.6" x2="60.6" y2="94.6"/>
		<line class="st7" x1="51.5" y1="94.6" x2="51.1" y2="94.6"/>
		<line class="st7" x1="35.4" y1="97.9" x2="36" y2="97.3"/>
		<line class="st7" x1="28.5" y1="101.7" x2="29.3" y2="101.6"/>
		<line class="st7" x1="20.5" y1="101.6" x2="21.3" y2="101.7"/>
		<line class="st7" x1="13.8" y1="97.3" x2="14.3" y2="97.9"/>
		<line class="st7" x1="14.3" y1="76.1" x2="13.8" y2="76.8"/>
		<line class="st7" x1="21.3" y1="72.3" x2="20.5" y2="72.6"/>
		<line class="st7" x1="29.3" y1="72.6" x2="28.5" y2="72.3"/>
		<line class="st7" x1="36" y1="76.8" x2="35.4" y2="76.1"/>
		<line class="st7" x1="51.1" y1="79.4" x2="51.5" y2="79.4"/>
		<line class="st7" x1="60.6" y1="79.4" x2="60.8" y2="79.4"/>
		<line class="st6" x1="69.9" y1="79.4" x2="70.3" y2="79.4"/>
		<line class="st8" x1="76.7" y1="75.3" x2="76.5" y2="75.7"/>
		<line class="st8" x1="81.3" y1="68.2" x2="81.1" y2="68.6"/>
		<line class="st8" x1="87.8" y1="62.8" x2="87.4" y2="63.1"/>
		<line class="st8" x1="95.8" y1="59.7" x2="95.2" y2="59.9"/>
		<line class="st8" x1="104.1" y1="59" x2="103.7" y2="59"/>
		<line class="st8" x1="112.4" y1="60.9" x2="111.9" y2="60.7"/>
		<line class="st9" x1="119.4" y1="59.2" x2="119.6" y2="58.9"/>
		<line class="st7" x1="126" y1="52.4" x2="126.3" y2="52.2"/>
		<line class="st8" x1="132.7" y1="45.7" x2="132.9" y2="45.6"/>
		<line class="st8" x1="139.3" y1="39.1" x2="139.6" y2="38.9"/>
		<line class="st5" x1="139" y1="39.4" x2="139.3" y2="39.1"/>
		<line class="st5" x1="145.7" y1="32.7" x2="145.9" y2="32.4"/>
		<line class="st5" x1="156.8" y1="43.3" x2="156.5" y2="43.6"/>
		<line class="st5" x1="150.3" y1="49.7" x2="150.2" y2="50"/>
		<line class="st8" x1="143.7" y1="56.3" x2="143.5" y2="56.6"/>
		<line class="st8" x1="137" y1="63" x2="136.9" y2="63.3"/>
		<line class="st9" x1="130.4" y1="69.6" x2="130.1" y2="69.9"/>
		<line class="st2" x1="128.6" y1="77.4" x2="128.4" y2="76.8"/>
		<line class="st2" x1="130.3" y1="85.6" x2="130.3" y2="85.2"/>
		<line class="st2" x1="129.4" y1="94.1" x2="129.5" y2="93.5"/>
		<line class="st2" x1="126.2" y1="101.9" x2="126.4" y2="101.4"/>
		<line class="st2" x1="120.6" y1="108.2" x2="121.1" y2="107.9"/>
		<line class="st2" x1="113.6" y1="112.7" x2="114" y2="112.6"/>
		<line class="st2" x1="109.9" y1="119" x2="109.9" y2="119.4"/>
		<line class="st2" x1="109.9" y1="137.4" x2="109.9" y2="137.7"/>
		<line class="st2" x1="109.9" y1="155.8" x2="109.9" y2="156.2"/>
		<line class="st2" x1="109.9" y1="165.2" x2="109.9" y2="165.5"/>
		<g>
			<path class="st3" d="M94.6,164c-2.1,0-3.8-1.7-3.8-3.8c0-2.1,1.7-3.8,3.8-3.8s3.8,1.7,3.8,3.8C98.4,162.3,96.7,164,94.6,164z"/>
			<path class="st3" d="M94.6,157.1c1.7,0,3.1,1.4,3.1,3.1c0,1.7-1.4,3.1-3.1,3.1c-1.7,0-3.1-1.4-3.1-3.1
				C91.5,158.5,92.9,157.1,94.6,157.1 M94.6,155.7c-2.5,0-4.5,2-4.5,4.5c0,2.5,2,4.5,4.5,4.5c2.5,0,4.5-2,4.5-4.5
				C99.2,157.7,97.1,155.7,94.6,155.7L94.6,155.7z"/>
		</g>
		<g>
			<path class="st3" d="M94.6,164c-2.1,0-3.8-1.7-3.8-3.8c0-2.1,1.7-3.8,3.8-3.8s3.8,1.7,3.8,3.8C98.4,162.3,96.7,164,94.6,164z"/>
			<path class="st3" d="M94.6,157.1c1.7,0,3.1,1.4,3.1,3.1c0,1.7-1.4,3.1-3.1,3.1c-1.7,0-3.1-1.4-3.1-3.1
				C91.5,158.5,92.9,157.1,94.6,157.1 M94.6,155.7c-2.5,0-4.5,2-4.5,4.5c0,2.5,2,4.5,4.5,4.5c2.5,0,4.5-2,4.5-4.5
				C99.2,157.7,97.1,155.7,94.6,155.7L94.6,155.7z"/>
		</g>
		<g>
			<path class="st3" d="M94.6,155c-2.1,0-3.8-1.7-3.8-3.8c0-2.1,1.7-3.8,3.8-3.8s3.8,1.7,3.8,3.8C98.4,153.3,96.7,155,94.6,155z"/>
			<path class="st3" d="M94.6,148.1c1.7,0,3.1,1.4,3.1,3.1s-1.4,3.1-3.1,3.1c-1.7,0-3.1-1.4-3.1-3.1S92.9,148.1,94.6,148.1
				 M94.6,146.7c-2.5,0-4.5,2-4.5,4.5s2,4.5,4.5,4.5c2.5,0,4.5-2,4.5-4.5S97.1,146.7,94.6,146.7L94.6,146.7z"/>
		</g>
		<g>
			<path class="st3" d="M94.6,155c-2.1,0-3.8-1.7-3.8-3.8c0-2.1,1.7-3.8,3.8-3.8s3.8,1.7,3.8,3.8C98.4,153.3,96.7,155,94.6,155z"/>
			<path class="st3" d="M94.6,148.1c1.7,0,3.1,1.4,3.1,3.1s-1.4,3.1-3.1,3.1c-1.7,0-3.1-1.4-3.1-3.1S92.9,148.1,94.6,148.1
				 M94.6,146.7c-2.5,0-4.5,2-4.5,4.5s2,4.5,4.5,4.5c2.5,0,4.5-2,4.5-4.5S97.1,146.7,94.6,146.7L94.6,146.7z"/>
		</g>
		<g>
			<path class="st3" d="M94.6,127.3c-2.1,0-3.8-1.7-3.8-3.8c0-2.1,1.7-3.8,3.8-3.8c2.1,0,3.8,1.7,3.8,3.8
				C98.4,125.6,96.7,127.3,94.6,127.3z"/>
			<path class="st3" d="M94.6,120.4c1.7,0,3.1,1.4,3.1,3.1s-1.4,3.1-3.1,3.1c-1.7,0-3.1-1.4-3.1-3.1S92.8,120.4,94.6,120.4
				 M94.6,119c-2.5,0-4.5,2-4.5,4.5s2,4.5,4.5,4.5c2.5,0,4.5-2,4.5-4.5S97.1,119,94.6,119L94.6,119z"/>
		</g>
		<g>
			<path class="st10" d="M94.6,118.3c-2.1,0-3.8-1.7-3.8-3.8c0-2.1,1.7-3.8,3.8-3.8s3.8,1.7,3.8,3.8
				C98.5,116.6,96.7,118.3,94.6,118.3z"/>
			<path class="st10" d="M94.6,111.3c1.7,0,3.1,1.4,3.1,3.1s-1.4,3.1-3.1,3.1c-1.7,0-3.1-1.4-3.1-3.1S92.9,111.3,94.6,111.3
				 M94.6,109.9c-2.5,0-4.5,2-4.5,4.5s2,4.5,4.5,4.5c2.5,0,4.5-2,4.5-4.5S97.1,109.9,94.6,109.9L94.6,109.9z"/>
		</g>
		<g>
			<path class="st10" d="M94.6,118.3c-2.1,0-3.8-1.7-3.8-3.8c0-2.1,1.7-3.8,3.8-3.8s3.8,1.7,3.8,3.8
				C98.5,116.6,96.7,118.3,94.6,118.3z"/>
			<path class="st10" d="M94.6,111.3c1.7,0,3.1,1.4,3.1,3.1s-1.4,3.1-3.1,3.1c-1.7,0-3.1-1.4-3.1-3.1S92.9,111.3,94.6,111.3
				 M94.6,109.9c-2.5,0-4.5,2-4.5,4.5s2,4.5,4.5,4.5c2.5,0,4.5-2,4.5-4.5S97.1,109.9,94.6,109.9L94.6,109.9z"/>
		</g>
		<g>
			<path class="st10" d="M87.8,115.4c-2.1,0-3.8-1.7-3.8-3.8c0-2.1,1.7-3.8,3.8-3.8s3.8,1.7,3.8,3.8C91.7,113.7,90,115.4,87.8,115.4
				z"/>
			<path class="st10" d="M87.8,108.5c1.7,0,3.1,1.4,3.1,3.1c0,1.7-1.4,3.1-3.1,3.1s-3.1-1.4-3.1-3.1
				C84.7,109.9,86.1,108.5,87.8,108.5 M87.8,107.1c-2.5,0-4.5,2-4.5,4.5c0,2.5,2,4.5,4.5,4.5s4.5-2,4.5-4.5
				C92.4,109.1,90.3,107.1,87.8,107.1L87.8,107.1z"/>
		</g>
		<g>
			<path class="st10" d="M87.8,115.4c-2.1,0-3.8-1.7-3.8-3.8c0-2.1,1.7-3.8,3.8-3.8s3.8,1.7,3.8,3.8C91.7,113.7,90,115.4,87.8,115.4
				z"/>
			<path class="st10" d="M87.8,108.5c1.7,0,3.1,1.4,3.1,3.1c0,1.7-1.4,3.1-3.1,3.1s-3.1-1.4-3.1-3.1
				C84.7,109.9,86.1,108.5,87.8,108.5 M87.8,107.1c-2.5,0-4.5,2-4.5,4.5c0,2.5,2,4.5,4.5,4.5s4.5-2,4.5-4.5
				C92.4,109.1,90.3,107.1,87.8,107.1L87.8,107.1z"/>
		</g>
		<g>
			<path class="st10" d="M82,111.1c-2.1,0-3.8-1.7-3.8-3.8c0-2.1,1.7-3.8,3.8-3.8s3.8,1.7,3.8,3.8C85.9,109.3,84.2,111.1,82,111.1z"
				/>
			<path class="st10" d="M82,104.1c1.7,0,3.1,1.4,3.1,3.1s-1.4,3.1-3.1,3.1s-3.1-1.4-3.1-3.1S80.3,104.1,82,104.1 M82,102.7
				c-2.5,0-4.5,2-4.5,4.5s2,4.5,4.5,4.5s4.5-2,4.5-4.5S84.5,102.7,82,102.7L82,102.7z"/>
		</g>
		<g>
			<path class="st10" d="M82,111.1c-2.1,0-3.8-1.7-3.8-3.8c0-2.1,1.7-3.8,3.8-3.8s3.8,1.7,3.8,3.8C85.9,109.3,84.2,111.1,82,111.1z"
				/>
			<path class="st10" d="M82,104.1c1.7,0,3.1,1.4,3.1,3.1s-1.4,3.1-3.1,3.1s-3.1-1.4-3.1-3.1S80.3,104.1,82,104.1 M82,102.7
				c-2.5,0-4.5,2-4.5,4.5s2,4.5,4.5,4.5s4.5-2,4.5-4.5S84.5,102.7,82,102.7L82,102.7z"/>
		</g>
		<g>
			<path class="st10" d="M77.7,105.3c-2.1,0-3.8-1.7-3.8-3.8s1.7-3.8,3.8-3.8s3.8,1.7,3.8,3.8S79.8,105.3,77.7,105.3z"/>
			<path class="st10" d="M77.7,98.3c1.7,0,3.1,1.4,3.1,3.1s-1.4,3.1-3.1,3.1c-1.7,0-3.1-1.4-3.1-3.1S75.9,98.3,77.7,98.3 M77.7,96.9
				c-2.5,0-4.5,2-4.5,4.5s2,4.5,4.5,4.5c2.5,0,4.5-2,4.5-4.5S80.2,96.9,77.7,96.9L77.7,96.9z"/>
		</g>
		<g>
			<path class="st10" d="M77.7,105.3c-2.1,0-3.8-1.7-3.8-3.8s1.7-3.8,3.8-3.8s3.8,1.7,3.8,3.8S79.8,105.3,77.7,105.3z"/>
			<path class="st10" d="M77.7,98.3c1.7,0,3.1,1.4,3.1,3.1s-1.4,3.1-3.1,3.1c-1.7,0-3.1-1.4-3.1-3.1S75.9,98.3,77.7,98.3 M77.7,96.9
				c-2.5,0-4.5,2-4.5,4.5s2,4.5,4.5,4.5c2.5,0,4.5-2,4.5-4.5S80.2,96.9,77.7,96.9L77.7,96.9z"/>
		</g>
		<g>
			<path class="st10" d="M74.8,98.5c-2.1,0-3.8-1.7-3.8-3.8s1.7-3.8,3.8-3.8s3.8,1.7,3.8,3.8S76.9,98.5,74.8,98.5z"/>
			<path class="st10" d="M74.8,91.5c1.7,0,3.1,1.4,3.1,3.1c0,1.7-1.4,3.1-3.1,3.1s-3.1-1.4-3.1-3.1C71.7,92.9,73.1,91.5,74.8,91.5
				 M74.8,90.1c-2.5,0-4.5,2-4.5,4.5c0,2.5,2,4.5,4.5,4.5s4.5-2,4.5-4.5C79.4,92.1,77.3,90.1,74.8,90.1L74.8,90.1z"/>
		</g>
		<g>
			<path class="st10" d="M65.8,98.5c-2.1,0-3.8-1.7-3.8-3.8s1.7-3.8,3.8-3.8c2.1,0,3.8,1.7,3.8,3.8S67.9,98.5,65.8,98.5z"/>
			<path class="st10" d="M65.8,91.5c1.7,0,3.1,1.4,3.1,3.1c0,1.7-1.4,3.1-3.1,3.1s-3.1-1.4-3.1-3.1C62.7,92.9,64.1,91.5,65.8,91.5
				 M65.8,90.1c-2.5,0-4.5,2-4.5,4.5c0,2.5,2,4.5,4.5,4.5c2.5,0,4.5-2,4.5-4.5C70.3,92.1,68.3,90.1,65.8,90.1L65.8,90.1z"/>
		</g>
		<g>
			<path class="st10" d="M56.7,98.5c-2.1,0-3.8-1.7-3.8-3.8s1.7-3.8,3.8-3.8s3.8,1.7,3.8,3.8S58.8,98.5,56.7,98.5z"/>
			<path class="st10" d="M56.7,91.5c1.7,0,3.1,1.4,3.1,3.1c0,1.7-1.4,3.1-3.1,3.1s-3.1-1.4-3.1-3.1C53.6,92.9,55,91.5,56.7,91.5
				 M56.7,90.1c-2.5,0-4.5,2-4.5,4.5c0,2.5,2,4.5,4.5,4.5s4.5-2,4.5-4.5C61.3,92.1,59.2,90.1,56.7,90.1L56.7,90.1z"/>
		</g>
		<g>
			<path class="st10" d="M47.7,98.5c-2.1,0-3.8-1.7-3.8-3.8s1.7-3.8,3.8-3.8s3.8,1.7,3.8,3.8S49.8,98.5,47.7,98.5z"/>
			<path class="st10" d="M47.7,91.5c1.7,0,3.1,1.4,3.1,3.1c0,1.7-1.4,3.1-3.1,3.1s-3.1-1.4-3.1-3.1C44.6,92.9,46,91.5,47.7,91.5
				 M47.7,90.1c-2.5,0-4.5,2-4.5,4.5c0,2.5,2,4.5,4.5,4.5s4.5-2,4.5-4.5C52.2,92.1,50.2,90.1,47.7,90.1L47.7,90.1z"/>
		</g>
		<g>
			<path class="st10" d="M38.6,98.5c-2.1,0-3.8-1.7-3.8-3.8s1.7-3.8,3.8-3.8s3.8,1.7,3.8,3.8S40.8,98.5,38.6,98.5z"/>
			<path class="st10" d="M38.6,91.5c1.7,0,3.1,1.4,3.1,3.1c0,1.7-1.4,3.1-3.1,3.1s-3.1-1.4-3.1-3.1C35.5,92.9,36.9,91.5,38.6,91.5
				 M38.6,90.1c-2.5,0-4.5,2-4.5,4.5c0,2.5,2,4.5,4.5,4.5c2.5,0,4.5-2,4.5-4.5C43.2,92.1,41.1,90.1,38.6,90.1L38.6,90.1z"/>
		</g>
		<g>
			<path class="st10" d="M38.6,98.5c-2.1,0-3.8-1.7-3.8-3.8s1.7-3.8,3.8-3.8s3.8,1.7,3.8,3.8S40.8,98.5,38.6,98.5z"/>
			<path class="st10" d="M38.6,91.5c1.7,0,3.1,1.4,3.1,3.1c0,1.7-1.4,3.1-3.1,3.1s-3.1-1.4-3.1-3.1C35.5,92.9,36.9,91.5,38.6,91.5
				 M38.6,90.1c-2.5,0-4.5,2-4.5,4.5c0,2.5,2,4.5,4.5,4.5c2.5,0,4.5-2,4.5-4.5C43.2,92.1,41.1,90.1,38.6,90.1L38.6,90.1z"/>
		</g>
		<g>
			<path class="st10" d="M32.8,104.4c-2.1,0-3.8-1.7-3.8-3.8c0-2.1,1.7-3.8,3.8-3.8s3.8,1.7,3.8,3.8C36.7,102.7,35,104.4,32.8,104.4
				z"/>
			<path class="st10" d="M32.8,97.5c1.7,0,3.1,1.4,3.1,3.1s-1.4,3.1-3.1,3.1s-3.1-1.4-3.1-3.1S31.1,97.5,32.8,97.5 M32.8,96.1
				c-2.5,0-4.5,2-4.5,4.5s2,4.5,4.5,4.5s4.5-2,4.5-4.5S35.3,96.1,32.8,96.1L32.8,96.1z"/>
		</g>
		<g>
			<path class="st10" d="M32.8,104.4c-2.1,0-3.8-1.7-3.8-3.8c0-2.1,1.7-3.8,3.8-3.8s3.8,1.7,3.8,3.8C36.7,102.7,35,104.4,32.8,104.4
				z"/>
			<path class="st10" d="M32.8,97.5c1.7,0,3.1,1.4,3.1,3.1s-1.4,3.1-3.1,3.1s-3.1-1.4-3.1-3.1S31.1,97.5,32.8,97.5 M32.8,96.1
				c-2.5,0-4.5,2-4.5,4.5s2,4.5,4.5,4.5s4.5-2,4.5-4.5S35.3,96.1,32.8,96.1L32.8,96.1z"/>
		</g>
		<g>
			<path class="st10" d="M24.9,106.5c-2.1,0-3.8-1.7-3.8-3.8c0-2.1,1.7-3.8,3.8-3.8s3.8,1.7,3.8,3.8C28.8,104.8,27,106.5,24.9,106.5
				z"/>
			<path class="st10" d="M24.9,99.6c1.7,0,3.1,1.4,3.1,3.1s-1.4,3.1-3.1,3.1s-3.1-1.4-3.1-3.1S23.2,99.6,24.9,99.6 M24.9,98.2
				c-2.5,0-4.5,2-4.5,4.5s2,4.5,4.5,4.5s4.5-2,4.5-4.5S27.4,98.2,24.9,98.2L24.9,98.2z"/>
		</g>
		<g>
			<path class="st10" d="M24.9,106.5c-2.1,0-3.8-1.7-3.8-3.8c0-2.1,1.7-3.8,3.8-3.8s3.8,1.7,3.8,3.8C28.8,104.8,27,106.5,24.9,106.5
				z"/>
			<path class="st10" d="M24.9,99.6c1.7,0,3.1,1.4,3.1,3.1s-1.4,3.1-3.1,3.1s-3.1-1.4-3.1-3.1S23.2,99.6,24.9,99.6 M24.9,98.2
				c-2.5,0-4.5,2-4.5,4.5s2,4.5,4.5,4.5s4.5-2,4.5-4.5S27.4,98.2,24.9,98.2L24.9,98.2z"/>
		</g>
		<g>
			<path class="st10" d="M17,104.4c-2.1,0-3.8-1.7-3.8-3.8c0-2.1,1.7-3.8,3.8-3.8s3.8,1.7,3.8,3.8C20.8,102.7,19.1,104.4,17,104.4z"
				/>
			<path class="st10" d="M17,97.5c1.7,0,3.1,1.4,3.1,3.1s-1.4,3.1-3.1,3.1s-3.1-1.4-3.1-3.1S15.3,97.5,17,97.5 M17,96.1
				c-2.5,0-4.5,2-4.5,4.5s2,4.5,4.5,4.5s4.5-2,4.5-4.5S19.5,96.1,17,96.1L17,96.1z"/>
		</g>
		<g>
			<path class="st10" d="M17,104.4c-2.1,0-3.8-1.7-3.8-3.8c0-2.1,1.7-3.8,3.8-3.8s3.8,1.7,3.8,3.8C20.8,102.7,19.1,104.4,17,104.4z"
				/>
			<path class="st10" d="M17,97.5c1.7,0,3.1,1.4,3.1,3.1s-1.4,3.1-3.1,3.1s-3.1-1.4-3.1-3.1S15.3,97.5,17,97.5 M17,96.1
				c-2.5,0-4.5,2-4.5,4.5s2,4.5,4.5,4.5s4.5-2,4.5-4.5S19.5,96.1,17,96.1L17,96.1z"/>
		</g>
		<g>
			<path class="st10" d="M11.2,98.5c-2.1,0-3.8-1.7-3.8-3.8s1.7-3.8,3.8-3.8s3.8,1.7,3.8,3.8S13.3,98.5,11.2,98.5z"/>
			<path class="st10" d="M11.2,91.5c1.7,0,3.1,1.4,3.1,3.1c0,1.7-1.4,3.1-3.1,3.1s-3.1-1.4-3.1-3.1C8.1,92.9,9.5,91.5,11.2,91.5
				 M11.2,90.1c-2.5,0-4.5,2-4.5,4.5c0,2.5,2,4.5,4.5,4.5s4.5-2,4.5-4.5C15.7,92.1,13.7,90.1,11.2,90.1L11.2,90.1z"/>
		</g>
		<g>
			<path class="st10" d="M11.2,98.5c-2.1,0-3.8-1.7-3.8-3.8s1.7-3.8,3.8-3.8s3.8,1.7,3.8,3.8S13.3,98.5,11.2,98.5z"/>
			<path class="st10" d="M11.2,91.5c1.7,0,3.1,1.4,3.1,3.1c0,1.7-1.4,3.1-3.1,3.1s-3.1-1.4-3.1-3.1C8.1,92.9,9.5,91.5,11.2,91.5
				 M11.2,90.1c-2.5,0-4.5,2-4.5,4.5c0,2.5,2,4.5,4.5,4.5s4.5-2,4.5-4.5C15.7,92.1,13.7,90.1,11.2,90.1L11.2,90.1z"/>
		</g>
		<g>
			<path class="st10" d="M11.2,83.2c-2.1,0-3.8-1.7-3.8-3.8s1.7-3.8,3.8-3.8s3.8,1.7,3.8,3.8S13.3,83.2,11.2,83.2z"/>
			<path class="st10" d="M11.2,76.3c1.7,0,3.1,1.4,3.1,3.1s-1.4,3.1-3.1,3.1s-3.1-1.4-3.1-3.1S9.5,76.3,11.2,76.3 M11.2,74.9
				c-2.5,0-4.5,2-4.5,4.5s2,4.5,4.5,4.5s4.5-2,4.5-4.5S13.7,74.9,11.2,74.9L11.2,74.9z"/>
		</g>
		<g>
			<path class="st10" d="M11.2,83.2c-2.1,0-3.8-1.7-3.8-3.8s1.7-3.8,3.8-3.8s3.8,1.7,3.8,3.8S13.3,83.2,11.2,83.2z"/>
			<path class="st10" d="M11.2,76.3c1.7,0,3.1,1.4,3.1,3.1s-1.4,3.1-3.1,3.1s-3.1-1.4-3.1-3.1S9.5,76.3,11.2,76.3 M11.2,74.9
				c-2.5,0-4.5,2-4.5,4.5s2,4.5,4.5,4.5s4.5-2,4.5-4.5S13.7,74.9,11.2,74.9L11.2,74.9z"/>
		</g>
		<g>
			<path class="st10" d="M17,77.4c-2.1,0-3.8-1.7-3.8-3.8s1.7-3.8,3.8-3.8s3.8,1.7,3.8,3.8S19.1,77.4,17,77.4z"/>
			<path class="st10" d="M17,70.5c1.7,0,3.1,1.4,3.1,3.1s-1.4,3.1-3.1,3.1s-3.1-1.4-3.1-3.1S15.3,70.5,17,70.5 M17,69.1
				c-2.5,0-4.5,2-4.5,4.5s2,4.5,4.5,4.5s4.5-2,4.5-4.5S19.5,69.1,17,69.1L17,69.1z"/>
		</g>
		<g>
			<path class="st10" d="M17,77.4c-2.1,0-3.8-1.7-3.8-3.8s1.7-3.8,3.8-3.8s3.8,1.7,3.8,3.8S19.1,77.4,17,77.4z"/>
			<path class="st10" d="M17,70.5c1.7,0,3.1,1.4,3.1,3.1s-1.4,3.1-3.1,3.1s-3.1-1.4-3.1-3.1S15.3,70.5,17,70.5 M17,69.1
				c-2.5,0-4.5,2-4.5,4.5s2,4.5,4.5,4.5s4.5-2,4.5-4.5S19.5,69.1,17,69.1L17,69.1z"/>
		</g>
		<g>
			<path class="st10" d="M24.9,75.1c-2.1,0-3.8-1.7-3.8-3.8s1.7-3.8,3.8-3.8s3.8,1.7,3.8,3.8S27,75.1,24.9,75.1z"/>
			<path class="st10" d="M24.9,68.2c1.7,0,3.1,1.4,3.1,3.1c0,1.7-1.4,3.1-3.1,3.1s-3.1-1.4-3.1-3.1C21.8,69.6,23.2,68.2,24.9,68.2
				 M24.9,66.8c-2.5,0-4.5,2-4.5,4.5c0,2.5,2,4.5,4.5,4.5s4.5-2,4.5-4.5C29.5,68.8,27.4,66.8,24.9,66.8L24.9,66.8z"/>
		</g>
		<g>
			<path class="st10" d="M24.9,75.1c-2.1,0-3.8-1.7-3.8-3.8s1.7-3.8,3.8-3.8s3.8,1.7,3.8,3.8S27,75.1,24.9,75.1z"/>
			<path class="st10" d="M24.9,68.2c1.7,0,3.1,1.4,3.1,3.1c0,1.7-1.4,3.1-3.1,3.1s-3.1-1.4-3.1-3.1C21.8,69.6,23.2,68.2,24.9,68.2
				 M24.9,66.8c-2.5,0-4.5,2-4.5,4.5c0,2.5,2,4.5,4.5,4.5s4.5-2,4.5-4.5C29.5,68.8,27.4,66.8,24.9,66.8L24.9,66.8z"/>
		</g>
		<g>
			<path class="st10" d="M32.8,77.4c-2.1,0-3.8-1.7-3.8-3.8s1.7-3.8,3.8-3.8s3.8,1.7,3.8,3.8S35,77.4,32.8,77.4z"/>
			<path class="st10" d="M32.8,70.5c1.7,0,3.1,1.4,3.1,3.1s-1.4,3.1-3.1,3.1s-3.1-1.4-3.1-3.1S31.1,70.5,32.8,70.5 M32.8,69.1
				c-2.5,0-4.5,2-4.5,4.5s2,4.5,4.5,4.5s4.5-2,4.5-4.5S35.3,69.1,32.8,69.1L32.8,69.1z"/>
		</g>
		<g>
			<path class="st10" d="M32.8,77.4c-2.1,0-3.8-1.7-3.8-3.8s1.7-3.8,3.8-3.8s3.8,1.7,3.8,3.8S35,77.4,32.8,77.4z"/>
			<path class="st10" d="M32.8,70.5c1.7,0,3.1,1.4,3.1,3.1s-1.4,3.1-3.1,3.1s-3.1-1.4-3.1-3.1S31.1,70.5,32.8,70.5 M32.8,69.1
				c-2.5,0-4.5,2-4.5,4.5s2,4.5,4.5,4.5s4.5-2,4.5-4.5S35.3,69.1,32.8,69.1L32.8,69.1z"/>
		</g>
		<g>
			<path class="st10" d="M38.6,83.2c-2.1,0-3.8-1.7-3.8-3.8s1.7-3.8,3.8-3.8s3.8,1.7,3.8,3.8S40.8,83.2,38.6,83.2z"/>
			<path class="st10" d="M38.6,76.3c1.7,0,3.1,1.4,3.1,3.1s-1.4,3.1-3.1,3.1s-3.1-1.4-3.1-3.1S36.9,76.3,38.6,76.3 M38.6,74.9
				c-2.5,0-4.5,2-4.5,4.5s2,4.5,4.5,4.5c2.5,0,4.5-2,4.5-4.5S41.1,74.9,38.6,74.9L38.6,74.9z"/>
		</g>
		<g>
			<path class="st10" d="M38.6,83.2c-2.1,0-3.8-1.7-3.8-3.8s1.7-3.8,3.8-3.8s3.8,1.7,3.8,3.8S40.8,83.2,38.6,83.2z"/>
			<path class="st10" d="M38.6,76.3c1.7,0,3.1,1.4,3.1,3.1s-1.4,3.1-3.1,3.1s-3.1-1.4-3.1-3.1S36.9,76.3,38.6,76.3 M38.6,74.9
				c-2.5,0-4.5,2-4.5,4.5s2,4.5,4.5,4.5c2.5,0,4.5-2,4.5-4.5S41.1,74.9,38.6,74.9L38.6,74.9z"/>
		</g>
		<g>
			<circle class="st10" cx="47.7" cy="79.4" r="3.8"/>
			<path class="st10" d="M47.7,76.3c1.7,0,3.1,1.4,3.1,3.1s-1.4,3.1-3.1,3.1s-3.1-1.4-3.1-3.1S46,76.3,47.7,76.3 M47.7,74.9
				c-2.5,0-4.5,2-4.5,4.5s2,4.5,4.5,4.5s4.5-2,4.5-4.5S50.2,74.9,47.7,74.9L47.7,74.9z"/>
		</g>
		<g>
			<circle class="st10" cx="56.7" cy="79.4" r="3.8"/>
			<path class="st10" d="M56.7,76.3c1.7,0,3.1,1.4,3.1,3.1s-1.4,3.1-3.1,3.1s-3.1-1.4-3.1-3.1S55,76.3,56.7,76.3 M56.7,74.9
				c-2.5,0-4.5,2-4.5,4.5s2,4.5,4.5,4.5s4.5-2,4.5-4.5S59.2,74.9,56.7,74.9L56.7,74.9z"/>
		</g>
		<g>
			<path class="st10" d="M65.8,83.2c-2.1,0-3.8-1.7-3.8-3.8s1.7-3.8,3.8-3.8c2.1,0,3.8,1.7,3.8,3.8S67.9,83.2,65.8,83.2z"/>
			<path class="st10" d="M65.8,76.3c1.7,0,3.1,1.4,3.1,3.1s-1.4,3.1-3.1,3.1s-3.1-1.4-3.1-3.1S64.1,76.3,65.8,76.3 M65.8,74.9
				c-2.5,0-4.5,2-4.5,4.5s2,4.5,4.5,4.5c2.5,0,4.5-2,4.5-4.5S68.3,74.9,65.8,74.9L65.8,74.9z"/>
		</g>
		<g>
			<circle class="st4" cx="74.8" cy="79.4" r="3.8"/>
			<path class="st4" d="M74.8,76.3c1.7,0,3.1,1.4,3.1,3.1s-1.4,3.1-3.1,3.1s-3.1-1.4-3.1-3.1S73.1,76.3,74.8,76.3 M74.8,74.9
				c-2.5,0-4.5,2-4.5,4.5s2,4.5,4.5,4.5s4.5-2,4.5-4.5S77.3,74.9,74.8,74.9L74.8,74.9z"/>
		</g>
		<g>
			<circle class="st4" cx="74.8" cy="79.4" r="3.8"/>
			<path class="st4" d="M74.8,76.3c1.7,0,3.1,1.4,3.1,3.1s-1.4,3.1-3.1,3.1s-3.1-1.4-3.1-3.1S73.1,76.3,74.8,76.3 M74.8,74.9
				c-2.5,0-4.5,2-4.5,4.5s2,4.5,4.5,4.5s4.5-2,4.5-4.5S77.3,74.9,74.8,74.9L74.8,74.9z"/>
		</g>
		<g>
			<path class="st4" d="M78.4,75.4c-2.1,0-3.8-1.7-3.8-3.8s1.7-3.8,3.8-3.8s3.8,1.7,3.8,3.8S80.5,75.4,78.4,75.4z"/>
			<path class="st4" d="M78.4,68.5c1.7,0,3.1,1.4,3.1,3.1c0,1.7-1.4,3.1-3.1,3.1c-1.7,0-3.1-1.4-3.1-3.1
				C75.2,69.9,76.6,68.5,78.4,68.5 M78.4,67.1c-2.5,0-4.5,2-4.5,4.5c0,2.5,2,4.5,4.5,4.5c2.5,0,4.5-2,4.5-4.5
				C82.9,69.1,80.9,67.1,78.4,67.1L78.4,67.1z"/>
		</g>
		<g>
			<path class="st4" d="M78.4,75.4c-2.1,0-3.8-1.7-3.8-3.8s1.7-3.8,3.8-3.8s3.8,1.7,3.8,3.8S80.5,75.4,78.4,75.4z"/>
			<path class="st4" d="M78.4,68.5c1.7,0,3.1,1.4,3.1,3.1c0,1.7-1.4,3.1-3.1,3.1c-1.7,0-3.1-1.4-3.1-3.1
				C75.2,69.9,76.6,68.5,78.4,68.5 M78.4,67.1c-2.5,0-4.5,2-4.5,4.5c0,2.5,2,4.5,4.5,4.5c2.5,0,4.5-2,4.5-4.5
				C82.9,69.1,80.9,67.1,78.4,67.1L78.4,67.1z"/>
		</g>
		<g>
			<path class="st4" d="M84,69.1c-2.1,0-3.8-1.7-3.8-3.8c0-2.1,1.7-3.8,3.8-3.8s3.8,1.7,3.8,3.8C87.8,67.4,86.1,69.1,84,69.1z"/>
			<path class="st4" d="M84,62.1c1.7,0,3.1,1.4,3.1,3.1c0,1.7-1.4,3.1-3.1,3.1s-3.1-1.4-3.1-3.1C80.9,63.5,82.3,62.1,84,62.1
				 M84,60.7c-2.5,0-4.5,2-4.5,4.5c0,2.5,2,4.5,4.5,4.5s4.5-2,4.5-4.5C88.5,62.7,86.5,60.7,84,60.7L84,60.7z"/>
		</g>
		<g>
			<path class="st4" d="M84,69.1c-2.1,0-3.8-1.7-3.8-3.8c0-2.1,1.7-3.8,3.8-3.8s3.8,1.7,3.8,3.8C87.8,67.4,86.1,69.1,84,69.1z"/>
			<path class="st4" d="M84,62.1c1.7,0,3.1,1.4,3.1,3.1c0,1.7-1.4,3.1-3.1,3.1s-3.1-1.4-3.1-3.1C80.9,63.5,82.3,62.1,84,62.1
				 M84,60.7c-2.5,0-4.5,2-4.5,4.5c0,2.5,2,4.5,4.5,4.5s4.5-2,4.5-4.5C88.5,62.7,86.5,60.7,84,60.7L84,60.7z"/>
		</g>
		<g>
			<circle class="st4" cx="91.4" cy="60.9" r="3.8"/>
			<path class="st4" d="M91.4,57.7c1.7,0,3.1,1.4,3.1,3.1S93.1,64,91.4,64c-1.7,0-3.1-1.4-3.1-3.1S89.6,57.7,91.4,57.7 M91.4,56.3
				c-2.5,0-4.5,2-4.5,4.5c0,2.5,2,4.5,4.5,4.5c2.5,0,4.5-2,4.5-4.5C95.9,58.4,93.9,56.3,91.4,56.3L91.4,56.3z"/>
		</g>
		<g>
			<circle class="st4" cx="91.4" cy="60.9" r="3.8"/>
			<path class="st4" d="M91.4,57.7c1.7,0,3.1,1.4,3.1,3.1S93.1,64,91.4,64c-1.7,0-3.1-1.4-3.1-3.1S89.6,57.7,91.4,57.7 M91.4,56.3
				c-2.5,0-4.5,2-4.5,4.5c0,2.5,2,4.5,4.5,4.5c2.5,0,4.5-2,4.5-4.5C95.9,58.4,93.9,56.3,91.4,56.3L91.4,56.3z"/>
		</g>
		<g>
			<path class="st4" d="M99.6,62.6c-2.1,0-3.8-1.7-3.8-3.8s1.7-3.8,3.8-3.8c2.1,0,3.8,1.7,3.8,3.8S101.7,62.6,99.6,62.6z"/>
			<path class="st4" d="M99.6,55.6c1.7,0,3.1,1.4,3.1,3.1s-1.4,3.1-3.1,3.1c-1.7,0-3.1-1.4-3.1-3.1S97.8,55.6,99.6,55.6 M99.6,54.2
				c-2.5,0-4.5,2-4.5,4.5c0,2.5,2,4.5,4.5,4.5c2.5,0,4.5-2,4.5-4.5C104.1,56.2,102.1,54.2,99.6,54.2L99.6,54.2z"/>
		</g>
		<g>
			<path class="st4" d="M99.6,62.6c-2.1,0-3.8-1.7-3.8-3.8s1.7-3.8,3.8-3.8c2.1,0,3.8,1.7,3.8,3.8S101.7,62.6,99.6,62.6z"/>
			<path class="st4" d="M99.6,55.6c1.7,0,3.1,1.4,3.1,3.1s-1.4,3.1-3.1,3.1c-1.7,0-3.1-1.4-3.1-3.1S97.8,55.6,99.6,55.6 M99.6,54.2
				c-2.5,0-4.5,2-4.5,4.5c0,2.5,2,4.5,4.5,4.5c2.5,0,4.5-2,4.5-4.5C104.1,56.2,102.1,54.2,99.6,54.2L99.6,54.2z"/>
		</g>
		<g>
			<path class="st4" d="M108.2,63.1c-2.1,0-3.8-1.7-3.8-3.8s1.7-3.8,3.8-3.8c2.1,0,3.8,1.7,3.8,3.8S110.3,63.1,108.2,63.1z"/>
			<path class="st4" d="M108.2,56.2c1.7,0,3.1,1.4,3.1,3.1s-1.4,3.1-3.1,3.1s-3.1-1.4-3.1-3.1S106.5,56.2,108.2,56.2 M108.2,54.8
				c-2.5,0-4.5,2-4.5,4.5c0,2.5,2,4.5,4.5,4.5s4.5-2,4.5-4.5C112.7,56.8,110.7,54.8,108.2,54.8L108.2,54.8z"/>
		</g>
		<g>
			<path class="st4" d="M108.2,63.1c-2.1,0-3.8-1.7-3.8-3.8s1.7-3.8,3.8-3.8c2.1,0,3.8,1.7,3.8,3.8S110.3,63.1,108.2,63.1z"/>
			<path class="st4" d="M108.2,56.2c1.7,0,3.1,1.4,3.1,3.1s-1.4,3.1-3.1,3.1s-3.1-1.4-3.1-3.1S106.5,56.2,108.2,56.2 M108.2,54.8
				c-2.5,0-4.5,2-4.5,4.5c0,2.5,2,4.5,4.5,4.5s4.5-2,4.5-4.5C112.7,56.8,110.7,54.8,108.2,54.8L108.2,54.8z"/>
		</g>
		<g>
			<path class="st4" d="M116.1,66.1c-2.1,0-3.8-1.7-3.8-3.8c0-2.1,1.7-3.8,3.8-3.8c2.1,0,3.8,1.7,3.8,3.8
				C119.9,64.4,118.2,66.1,116.1,66.1z"/>
			<path class="st4" d="M116.1,59.1c1.7,0,3.1,1.4,3.1,3.1s-1.4,3.1-3.1,3.1S113,64,113,62.3S114.4,59.1,116.1,59.1 M116.1,57.7
				c-2.5,0-4.5,2-4.5,4.5c0,2.5,2,4.5,4.5,4.5s4.5-2,4.5-4.5C120.6,59.8,118.6,57.7,116.1,57.7L116.1,57.7z"/>
		</g>
		<g>
			<path class="st10" d="M122.8,59.5c-2.1,0-3.8-1.7-3.8-3.8s1.7-3.8,3.8-3.8c2.1,0,3.8,1.7,3.8,3.8S124.9,59.5,122.8,59.5z"/>
			<path class="st10" d="M122.8,52.5c1.7,0,3.1,1.4,3.1,3.1s-1.4,3.1-3.1,3.1s-3.1-1.4-3.1-3.1S121,52.5,122.8,52.5 M122.8,51.1
				c-2.5,0-4.5,2-4.5,4.5c0,2.5,2,4.5,4.5,4.5s4.5-2,4.5-4.5C127.3,53.1,125.3,51.1,122.8,51.1L122.8,51.1z"/>
		</g>
		<g>
			<path class="st4" d="M122.8,59.5c-2.1,0-3.8-1.7-3.8-3.8s1.7-3.8,3.8-3.8c2.1,0,3.8,1.7,3.8,3.8S124.9,59.5,122.8,59.5z"/>
			<path class="st4" d="M122.8,52.5c1.7,0,3.1,1.4,3.1,3.1s-1.4,3.1-3.1,3.1s-3.1-1.4-3.1-3.1S121,52.5,122.8,52.5 M122.8,51.1
				c-2.5,0-4.5,2-4.5,4.5c0,2.5,2,4.5,4.5,4.5s4.5-2,4.5-4.5C127.3,53.1,125.3,51.1,122.8,51.1L122.8,51.1z"/>
		</g>
		<g>
			<path class="st4" d="M129.4,52.8c-2.1,0-3.8-1.7-3.8-3.8s1.7-3.8,3.8-3.8c2.1,0,3.8,1.7,3.8,3.8S131.5,52.8,129.4,52.8z"/>
			<path class="st4" d="M129.4,45.9c1.7,0,3.1,1.4,3.1,3.1s-1.4,3.1-3.1,3.1s-3.1-1.4-3.1-3.1S127.7,45.9,129.4,45.9 M129.4,44.5
				c-2.5,0-4.5,2-4.5,4.5c0,2.5,2,4.5,4.5,4.5c2.5,0,4.5-2,4.5-4.5C133.9,46.5,131.9,44.5,129.4,44.5L129.4,44.5z"/>
		</g>
		<g>
			<path class="st4" d="M129.4,52.8c-2.1,0-3.8-1.7-3.8-3.8s1.7-3.8,3.8-3.8c2.1,0,3.8,1.7,3.8,3.8S131.5,52.8,129.4,52.8z"/>
			<path class="st4" d="M129.4,45.9c1.7,0,3.1,1.4,3.1,3.1s-1.4,3.1-3.1,3.1s-3.1-1.4-3.1-3.1S127.7,45.9,129.4,45.9 M129.4,44.5
				c-2.5,0-4.5,2-4.5,4.5c0,2.5,2,4.5,4.5,4.5c2.5,0,4.5-2,4.5-4.5C133.9,46.5,131.9,44.5,129.4,44.5L129.4,44.5z"/>
		</g>
		<g>
			<path class="st4" d="M136.2,46.2c-2.1,0-3.8-1.7-3.8-3.8s1.7-3.8,3.8-3.8c2.1,0,3.8,1.7,3.8,3.8S138.3,46.2,136.2,46.2z"/>
			<path class="st4" d="M136.2,39.2c1.7,0,3.1,1.4,3.1,3.1s-1.4,3.1-3.1,3.1s-3.1-1.4-3.1-3.1S134.5,39.2,136.2,39.2 M136.2,37.8
				c-2.5,0-4.5,2-4.5,4.5c0,2.5,2,4.5,4.5,4.5s4.5-2,4.5-4.5C140.7,39.8,138.7,37.8,136.2,37.8L136.2,37.8z"/>
		</g>
		<g>
			<path class="st4" d="M136.2,46.2c-2.1,0-3.8-1.7-3.8-3.8s1.7-3.8,3.8-3.8c2.1,0,3.8,1.7,3.8,3.8S138.3,46.2,136.2,46.2z"/>
			<path class="st4" d="M136.2,39.2c1.7,0,3.1,1.4,3.1,3.1s-1.4,3.1-3.1,3.1s-3.1-1.4-3.1-3.1S134.5,39.2,136.2,39.2 M136.2,37.8
				c-2.5,0-4.5,2-4.5,4.5c0,2.5,2,4.5,4.5,4.5s4.5-2,4.5-4.5C140.7,39.8,138.7,37.8,136.2,37.8L136.2,37.8z"/>
		</g>
		<g>
			<path class="st4" d="M146.9,56.9c-2.1,0-3.8-1.7-3.8-3.8s1.7-3.8,3.8-3.8c2.1,0,3.8,1.7,3.8,3.8S149,56.9,146.9,56.9z"/>
			<path class="st4" d="M146.9,50c1.7,0,3.1,1.4,3.1,3.1s-1.4,3.1-3.1,3.1s-3.1-1.4-3.1-3.1S145.2,50,146.9,50 M146.9,48.6
				c-2.5,0-4.5,2-4.5,4.5c0,2.5,2,4.5,4.5,4.5c2.5,0,4.5-2,4.5-4.5C151.5,50.6,149.4,48.6,146.9,48.6L146.9,48.6z"/>
		</g>
		<g>
			<path class="st4" d="M146.9,56.9c-2.1,0-3.8-1.7-3.8-3.8s1.7-3.8,3.8-3.8c2.1,0,3.8,1.7,3.8,3.8S149,56.9,146.9,56.9z"/>
			<path class="st4" d="M146.9,50c1.7,0,3.1,1.4,3.1,3.1s-1.4,3.1-3.1,3.1s-3.1-1.4-3.1-3.1S145.2,50,146.9,50 M146.9,48.6
				c-2.5,0-4.5,2-4.5,4.5c0,2.5,2,4.5,4.5,4.5c2.5,0,4.5-2,4.5-4.5C151.5,50.6,149.4,48.6,146.9,48.6L146.9,48.6z"/>
		</g>
		<g>
			<path class="st4" d="M140.3,63.6c-2.1,0-3.8-1.7-3.8-3.8s1.7-3.8,3.8-3.8c2.1,0,3.8,1.7,3.8,3.8S142.4,63.6,140.3,63.6z"/>
			<path class="st4" d="M140.3,56.6c1.7,0,3.1,1.4,3.1,3.1s-1.4,3.1-3.1,3.1s-3.1-1.4-3.1-3.1S138.6,56.6,140.3,56.6 M140.3,55.2
				c-2.5,0-4.5,2-4.5,4.5c0,2.5,2,4.5,4.5,4.5c2.5,0,4.5-2,4.5-4.5C144.8,57.2,142.8,55.2,140.3,55.2L140.3,55.2z"/>
		</g>
		<g>
			<path class="st4" d="M140.3,63.6c-2.1,0-3.8-1.7-3.8-3.8s1.7-3.8,3.8-3.8c2.1,0,3.8,1.7,3.8,3.8S142.4,63.6,140.3,63.6z"/>
			<path class="st4" d="M140.3,56.6c1.7,0,3.1,1.4,3.1,3.1s-1.4,3.1-3.1,3.1s-3.1-1.4-3.1-3.1S138.6,56.6,140.3,56.6 M140.3,55.2
				c-2.5,0-4.5,2-4.5,4.5c0,2.5,2,4.5,4.5,4.5c2.5,0,4.5-2,4.5-4.5C144.8,57.2,142.8,55.2,140.3,55.2L140.3,55.2z"/>
		</g>
		<g>
			<path class="st4" d="M133.6,70.3c-2.1,0-3.8-1.7-3.8-3.8s1.7-3.8,3.8-3.8c2.1,0,3.8,1.7,3.8,3.8S135.8,70.3,133.6,70.3z"/>
			<path class="st4" d="M133.6,63.4c1.7,0,3.1,1.4,3.1,3.1s-1.4,3.1-3.1,3.1s-3.1-1.4-3.1-3.1S131.9,63.4,133.6,63.4 M133.6,62
				c-2.5,0-4.5,2-4.5,4.5s2,4.5,4.5,4.5s4.5-2,4.5-4.5S136.1,62,133.6,62L133.6,62z"/>
		</g>
		<g>
			<path class="st4" d="M133.6,70.3c-2.1,0-3.8-1.7-3.8-3.8s1.7-3.8,3.8-3.8c2.1,0,3.8,1.7,3.8,3.8S135.8,70.3,133.6,70.3z"/>
			<path class="st4" d="M133.6,63.4c1.7,0,3.1,1.4,3.1,3.1s-1.4,3.1-3.1,3.1s-3.1-1.4-3.1-3.1S131.9,63.4,133.6,63.4 M133.6,62
				c-2.5,0-4.5,2-4.5,4.5s2,4.5,4.5,4.5s4.5-2,4.5-4.5S136.1,62,133.6,62L133.6,62z"/>
		</g>
		<g>
			<path class="st3" d="M127,77c-2.1,0-3.8-1.7-3.8-3.8c0-2.1,1.7-3.8,3.8-3.8c2.1,0,3.8,1.7,3.8,3.8C130.8,75.3,129.1,77,127,77z"
				/>
			<path class="st3" d="M127,70c1.7,0,3.1,1.4,3.1,3.1s-1.4,3.1-3.1,3.1s-3.1-1.4-3.1-3.1S125.3,70,127,70 M127,68.6
				c-2.5,0-4.5,2-4.5,4.5s2,4.5,4.5,4.5c2.5,0,4.5-2,4.5-4.5S129.5,68.6,127,68.6L127,68.6z"/>
		</g>
		<g>
			<path class="st3" d="M127,77c-2.1,0-3.8-1.7-3.8-3.8c0-2.1,1.7-3.8,3.8-3.8c2.1,0,3.8,1.7,3.8,3.8C130.8,75.3,129.1,77,127,77z"
				/>
			<path class="st3" d="M127,70c1.7,0,3.1,1.4,3.1,3.1s-1.4,3.1-3.1,3.1s-3.1-1.4-3.1-3.1S125.3,70,127,70 M127,68.6
				c-2.5,0-4.5,2-4.5,4.5s2,4.5,4.5,4.5c2.5,0,4.5-2,4.5-4.5S129.5,68.6,127,68.6L127,68.6z"/>
		</g>
		<g>
			<path class="st3" d="M130,84.9c-2.1,0-3.8-1.7-3.8-3.8c0-2.1,1.7-3.8,3.8-3.8c2.1,0,3.8,1.7,3.8,3.8
				C133.8,83.2,132.1,84.9,130,84.9z"/>
			<path class="st3" d="M130,78c1.7,0,3.1,1.4,3.1,3.1s-1.4,3.1-3.1,3.1s-3.1-1.4-3.1-3.1S128.3,78,130,78 M130,76.6
				c-2.5,0-4.5,2-4.5,4.5s2,4.5,4.5,4.5c2.5,0,4.5-2,4.5-4.5S132.5,76.6,130,76.6L130,76.6z"/>
		</g>
		<g>
			<path class="st3" d="M130,84.9c-2.1,0-3.8-1.7-3.8-3.8c0-2.1,1.7-3.8,3.8-3.8c2.1,0,3.8,1.7,3.8,3.8
				C133.8,83.2,132.1,84.9,130,84.9z"/>
			<path class="st3" d="M130,78c1.7,0,3.1,1.4,3.1,3.1s-1.4,3.1-3.1,3.1s-3.1-1.4-3.1-3.1S128.3,78,130,78 M130,76.6
				c-2.5,0-4.5,2-4.5,4.5s2,4.5,4.5,4.5c2.5,0,4.5-2,4.5-4.5S132.5,76.6,130,76.6L130,76.6z"/>
		</g>
		<g>
			<path class="st3" d="M130.5,93.5c-2.1,0-3.8-1.7-3.8-3.8s1.7-3.8,3.8-3.8c2.1,0,3.8,1.7,3.8,3.8S132.6,93.5,130.5,93.5z"/>
			<path class="st3" d="M130.5,86.6c1.7,0,3.1,1.4,3.1,3.1c0,1.7-1.4,3.1-3.1,3.1s-3.1-1.4-3.1-3.1C127.4,88,128.8,86.6,130.5,86.6
				 M130.5,85.2c-2.5,0-4.5,2-4.5,4.5c0,2.5,2,4.5,4.5,4.5s4.5-2,4.5-4.5C135.1,87.2,133,85.2,130.5,85.2L130.5,85.2z"/>
		</g>
		<g>
			<path class="st3" d="M130.5,93.5c-2.1,0-3.8-1.7-3.8-3.8s1.7-3.8,3.8-3.8c2.1,0,3.8,1.7,3.8,3.8S132.6,93.5,130.5,93.5z"/>
			<path class="st3" d="M130.5,86.6c1.7,0,3.1,1.4,3.1,3.1c0,1.7-1.4,3.1-3.1,3.1s-3.1-1.4-3.1-3.1C127.4,88,128.8,86.6,130.5,86.6
				 M130.5,85.2c-2.5,0-4.5,2-4.5,4.5c0,2.5,2,4.5,4.5,4.5s4.5-2,4.5-4.5C135.1,87.2,133,85.2,130.5,85.2L130.5,85.2z"/>
		</g>
		<g>
			<path class="st3" d="M128.4,101.7c-2.1,0-3.8-1.7-3.8-3.8c0-2.1,1.7-3.8,3.8-3.8c2.1,0,3.8,1.7,3.8,3.8
				C132.2,100,130.5,101.7,128.4,101.7z"/>
			<path class="st3" d="M128.4,94.8c1.7,0,3.1,1.4,3.1,3.1c0,1.7-1.4,3.1-3.1,3.1c-1.7,0-3.1-1.4-3.1-3.1
				C125.3,96.2,126.7,94.8,128.4,94.8 M128.4,93.4c-2.5,0-4.5,2-4.5,4.5c0,2.5,2,4.5,4.5,4.5c2.5,0,4.5-2,4.5-4.5
				C132.9,95.4,130.9,93.4,128.4,93.4L128.4,93.4z"/>
		</g>
		<g>
			<path class="st3" d="M128.4,101.7c-2.1,0-3.8-1.7-3.8-3.8c0-2.1,1.7-3.8,3.8-3.8c2.1,0,3.8,1.7,3.8,3.8
				C132.2,100,130.5,101.7,128.4,101.7z"/>
			<path class="st3" d="M128.4,94.8c1.7,0,3.1,1.4,3.1,3.1c0,1.7-1.4,3.1-3.1,3.1c-1.7,0-3.1-1.4-3.1-3.1
				C125.3,96.2,126.7,94.8,128.4,94.8 M128.4,93.4c-2.5,0-4.5,2-4.5,4.5c0,2.5,2,4.5,4.5,4.5c2.5,0,4.5-2,4.5-4.5
				C132.9,95.4,130.9,93.4,128.4,93.4L128.4,93.4z"/>
		</g>
		<g>
			<path class="st3" d="M124,109.1c-2.1,0-3.8-1.7-3.8-3.8c0-2.1,1.7-3.8,3.8-3.8c2.1,0,3.8,1.7,3.8,3.8
				C127.8,107.4,126.1,109.1,124,109.1z"/>
			<path class="st3" d="M124,102.1c1.7,0,3.1,1.4,3.1,3.1s-1.4,3.1-3.1,3.1s-3.1-1.4-3.1-3.1S122.3,102.1,124,102.1 M124,100.7
				c-2.5,0-4.5,2-4.5,4.5s2,4.5,4.5,4.5s4.5-2,4.5-4.5S126.5,100.7,124,100.7L124,100.7z"/>
		</g>
		<g>
			<path class="st3" d="M124,109.1c-2.1,0-3.8-1.7-3.8-3.8c0-2.1,1.7-3.8,3.8-3.8c2.1,0,3.8,1.7,3.8,3.8
				C127.8,107.4,126.1,109.1,124,109.1z"/>
			<path class="st3" d="M124,102.1c1.7,0,3.1,1.4,3.1,3.1s-1.4,3.1-3.1,3.1s-3.1-1.4-3.1-3.1S122.3,102.1,124,102.1 M124,100.7
				c-2.5,0-4.5,2-4.5,4.5s2,4.5,4.5,4.5s4.5-2,4.5-4.5S126.5,100.7,124,100.7L124,100.7z"/>
		</g>
		<g>
			<path class="st3" d="M117.7,114.7c-2.1,0-3.8-1.7-3.8-3.8c0-2.1,1.7-3.8,3.8-3.8c2.1,0,3.8,1.7,3.8,3.8
				C121.5,113,119.8,114.7,117.7,114.7z"/>
			<path class="st3" d="M117.7,107.8c1.7,0,3.1,1.4,3.1,3.1s-1.4,3.1-3.1,3.1c-1.7,0-3.1-1.4-3.1-3.1S116,107.8,117.7,107.8
				 M117.7,106.4c-2.5,0-4.5,2-4.5,4.5s2,4.5,4.5,4.5c2.5,0,4.5-2,4.5-4.5S120.2,106.4,117.7,106.4L117.7,106.4z"/>
		</g>
		<g>
			<path class="st3" d="M117.7,114.7c-2.1,0-3.8-1.7-3.8-3.8c0-2.1,1.7-3.8,3.8-3.8c2.1,0,3.8,1.7,3.8,3.8
				C121.5,113,119.8,114.7,117.7,114.7z"/>
			<path class="st3" d="M117.7,107.8c1.7,0,3.1,1.4,3.1,3.1s-1.4,3.1-3.1,3.1c-1.7,0-3.1-1.4-3.1-3.1S116,107.8,117.7,107.8
				 M117.7,106.4c-2.5,0-4.5,2-4.5,4.5s2,4.5,4.5,4.5c2.5,0,4.5-2,4.5-4.5S120.2,106.4,117.7,106.4L117.7,106.4z"/>
		</g>
		<g>
			<path class="st3" d="M109.9,118.3c-2.1,0-3.8-1.7-3.8-3.8c0-2.1,1.7-3.8,3.8-3.8c2.1,0,3.8,1.7,3.8,3.8
				C113.7,116.5,112,118.3,109.9,118.3z"/>
			<path class="st3" d="M109.9,111.3c1.7,0,3.1,1.4,3.1,3.1s-1.4,3.1-3.1,3.1s-3.1-1.4-3.1-3.1S108.2,111.3,109.9,111.3
				 M109.9,109.9c-2.5,0-4.5,2-4.5,4.5s2,4.5,4.5,4.5s4.5-2,4.5-4.5S112.4,109.9,109.9,109.9L109.9,109.9z"/>
		</g>
		<g>
			<path class="st3" d="M109.9,118.3c-2.1,0-3.8-1.7-3.8-3.8c0-2.1,1.7-3.8,3.8-3.8c2.1,0,3.8,1.7,3.8,3.8
				C113.7,116.5,112,118.3,109.9,118.3z"/>
			<path class="st3" d="M109.9,111.3c1.7,0,3.1,1.4,3.1,3.1s-1.4,3.1-3.1,3.1s-3.1-1.4-3.1-3.1S108.2,111.3,109.9,111.3
				 M109.9,109.9c-2.5,0-4.5,2-4.5,4.5s2,4.5,4.5,4.5s4.5-2,4.5-4.5S112.4,109.9,109.9,109.9L109.9,109.9z"/>
		</g>
		<g>
			<path class="st3" d="M109.8,127.3c-2.1,0-3.8-1.7-3.8-3.8c0-2.1,1.7-3.8,3.8-3.8s3.8,1.7,3.8,3.8
				C113.6,125.6,111.9,127.3,109.8,127.3z"/>
			<path class="st3" d="M109.8,120.4c1.7,0,3.1,1.4,3.1,3.1s-1.4,3.1-3.1,3.1s-3.1-1.4-3.1-3.1S108.1,120.4,109.8,120.4 M109.8,119
				c-2.5,0-4.5,2-4.5,4.5s2,4.5,4.5,4.5s4.5-2,4.5-4.5S112.3,119,109.8,119L109.8,119z"/>
		</g>
		<g>
			<path class="st3" d="M109.9,155c-2.1,0-3.8-1.7-3.8-3.8c0-2.1,1.7-3.8,3.8-3.8c2.1,0,3.8,1.7,3.8,3.8
				C113.7,153.3,112,155,109.9,155z"/>
			<path class="st3" d="M109.9,148.1c1.7,0,3.1,1.4,3.1,3.1s-1.4,3.1-3.1,3.1s-3.1-1.4-3.1-3.1S108.2,148.1,109.9,148.1
				 M109.9,146.7c-2.5,0-4.5,2-4.5,4.5s2,4.5,4.5,4.5s4.5-2,4.5-4.5S112.4,146.7,109.9,146.7L109.9,146.7z"/>
		</g>
		<g>
			<path class="st3" d="M109.9,155c-2.1,0-3.8-1.7-3.8-3.8c0-2.1,1.7-3.8,3.8-3.8c2.1,0,3.8,1.7,3.8,3.8
				C113.7,153.3,112,155,109.9,155z"/>
			<path class="st3" d="M109.9,148.1c1.7,0,3.1,1.4,3.1,3.1s-1.4,3.1-3.1,3.1s-3.1-1.4-3.1-3.1S108.2,148.1,109.9,148.1
				 M109.9,146.7c-2.5,0-4.5,2-4.5,4.5s2,4.5,4.5,4.5s4.5-2,4.5-4.5S112.4,146.7,109.9,146.7L109.9,146.7z"/>
		</g>
		<g>
			<path class="st3" d="M109.9,164c-2.1,0-3.8-1.7-3.8-3.8c0-2.1,1.7-3.8,3.8-3.8c2.1,0,3.8,1.7,3.8,3.8
				C113.7,162.3,112,164,109.9,164z"/>
			<path class="st3" d="M109.9,157.1c1.7,0,3.1,1.4,3.1,3.1c0,1.7-1.4,3.1-3.1,3.1s-3.1-1.4-3.1-3.1
				C106.8,158.5,108.2,157.1,109.9,157.1 M109.9,155.7c-2.5,0-4.5,2-4.5,4.5c0,2.5,2,4.5,4.5,4.5s4.5-2,4.5-4.5
				C114.4,157.7,112.4,155.7,109.9,155.7L109.9,155.7z"/>
		</g>
		<g>
			<path class="st3" d="M109.9,164c-2.1,0-3.8-1.7-3.8-3.8c0-2.1,1.7-3.8,3.8-3.8c2.1,0,3.8,1.7,3.8,3.8
				C113.7,162.3,112,164,109.9,164z"/>
			<path class="st3" d="M109.9,157.1c1.7,0,3.1,1.4,3.1,3.1c0,1.7-1.4,3.1-3.1,3.1s-3.1-1.4-3.1-3.1
				C106.8,158.5,108.2,157.1,109.9,157.1 M109.9,155.7c-2.5,0-4.5,2-4.5,4.5c0,2.5,2,4.5,4.5,4.5s4.5-2,4.5-4.5
				C114.4,157.7,112.4,155.7,109.9,155.7L109.9,155.7z"/>
		</g>
		<g>
			<path class="st3" d="M94.6,136.6c-2.2,0-3.9-1.8-3.9-3.9s1.8-3.9,3.9-3.9c2.2,0,3.9,1.8,3.9,3.9S96.8,136.6,94.6,136.6z"/>
			<path class="st3" d="M94.6,129.3c1.8,0,3.3,1.5,3.3,3.3c0,1.8-1.5,3.3-3.3,3.3c-1.8,0-3.3-1.5-3.3-3.3
				C91.3,130.8,92.8,129.3,94.6,129.3 M94.6,128c-2.5,0-4.6,2.1-4.6,4.6c0,2.5,2.1,4.6,4.6,4.6c2.5,0,4.6-2.1,4.6-4.6
				C99.2,130.1,97.2,128,94.6,128L94.6,128z"/>
		</g>
		<g>
			<path class="st3" d="M94.8,146.1c-2.3,0-4.1-1.8-4.1-4.1c0-2.3,1.8-4.1,4.1-4.1c2.3,0,4.1,1.8,4.1,4.1
				C98.9,144.3,97,146.1,94.8,146.1z"/>
			<path class="st3" d="M94.8,138.6c1.9,0,3.4,1.5,3.4,3.4s-1.5,3.4-3.4,3.4s-3.4-1.5-3.4-3.4S92.9,138.6,94.8,138.6 M94.8,137.3
				c-2.6,0-4.7,2.1-4.7,4.7s2.1,4.7,4.7,4.7s4.7-2.1,4.7-4.7S97.4,137.3,94.8,137.3L94.8,137.3z"/>
		</g>
		<g>
			<path class="st4" d="M116.1,66.1c-2.1,0-3.8-1.7-3.8-3.8c0-2.1,1.7-3.8,3.8-3.8c2.1,0,3.8,1.7,3.8,3.8
				C119.9,64.4,118.2,66.1,116.1,66.1z"/>
			<path class="st4" d="M116.1,59.1c1.7,0,3.1,1.4,3.1,3.1s-1.4,3.1-3.1,3.1S113,64,113,62.3S114.4,59.1,116.1,59.1 M116.1,57.7
				c-2.5,0-4.5,2-4.5,4.5c0,2.5,2,4.5,4.5,4.5s4.5-2,4.5-4.5C120.6,59.8,118.6,57.7,116.1,57.7L116.1,57.7z"/>
		</g>
		<g>
			<path class="st10" d="M74.8,98.5c-2.1,0-3.8-1.7-3.8-3.8s1.7-3.8,3.8-3.8s3.8,1.7,3.8,3.8S76.9,98.5,74.8,98.5z"/>
			<path class="st10" d="M74.8,91.5c1.7,0,3.1,1.4,3.1,3.1c0,1.7-1.4,3.1-3.1,3.1s-3.1-1.4-3.1-3.1C71.7,92.9,73.1,91.5,74.8,91.5
				 M74.8,90.1c-2.5,0-4.5,2-4.5,4.5c0,2.5,2,4.5,4.5,4.5s4.5-2,4.5-4.5C79.4,92.1,77.3,90.1,74.8,90.1L74.8,90.1z"/>
		</g>
		<g>
			<circle class="st10" cx="8" cy="87" r="3.8"/>
			<path class="st10" d="M8,83.9c1.7,0,3.1,1.4,3.1,3.1S9.7,90.1,8,90.1S4.9,88.7,4.9,87S6.3,83.9,8,83.9 M8,82.5
				c-2.5,0-4.5,2-4.5,4.5s2,4.5,4.5,4.5s4.5-2,4.5-4.5S10.5,82.5,8,82.5L8,82.5z"/>
		</g>
		<g>
			<circle class="st10" cx="8" cy="87" r="3.8"/>
			<path class="st10" d="M8,83.9c1.7,0,3.1,1.4,3.1,3.1S9.7,90.1,8,90.1S4.9,88.7,4.9,87S6.3,83.9,8,83.9 M8,82.5
				c-2.5,0-4.5,2-4.5,4.5s2,4.5,4.5,4.5s4.5-2,4.5-4.5S10.5,82.5,8,82.5L8,82.5z"/>
		</g>
		<g>
			<circle class="st3" cx="109.7" cy="132.6" r="3.9"/>
			<path class="st3" d="M109.7,129.3c1.8,0,3.3,1.5,3.3,3.3c0,1.8-1.5,3.3-3.3,3.3c-1.8,0-3.3-1.5-3.3-3.3
				C106.4,130.8,107.9,129.3,109.7,129.3 M109.7,128c-2.5,0-4.6,2.1-4.6,4.6s2.1,4.6,4.6,4.6c2.5,0,4.6-2.1,4.6-4.6
				S112.3,128,109.7,128L109.7,128z"/>
		</g>
		<g>
			<path class="st3" d="M109.9,146.1c-2.3,0-4.1-1.8-4.1-4.1s1.8-4.1,4.1-4.1c2.3,0,4.1,1.8,4.1,4.1S112.1,146.1,109.9,146.1z"/>
			<path class="st3" d="M109.9,138.5c1.9,0,3.4,1.5,3.4,3.4c0,1.9-1.5,3.4-3.4,3.4s-3.4-1.5-3.4-3.4
				C106.4,140.1,108,138.5,109.9,138.5 M109.9,137.2c-2.6,0-4.7,2.1-4.7,4.7s2.1,4.7,4.7,4.7s4.7-2.1,4.7-4.7
				S112.5,137.2,109.9,137.2L109.9,137.2z"/>
		</g>
	</g>
	<line class="st11" x1="78.4" y1="186.7" x2="95.1" y2="186.7"/>
</g>
<g id="Layer_2">
	<g>
		<path class="st12" d="M192,172c0,11-9,20-20,20H20c-11,0-20-9-20-20V20C0,9,9,0,20,0h152c11,0,20,9,20,20V172z"/>
	</g>
	<g>
		<line class="st13" x1="108.5" y1="183.3" x2="108.5" y2="85.5"/>
		<g>
			<path class="st14" d="M29.5,108.8c-11.7,0-21.2-9.5-21.2-21.2c0-11.7,9.5-21.2,21.2-21.2c11.7,0,21.2,9.5,21.2,21.2
				C50.7,99.3,41.2,108.8,29.5,108.8z"/>
			<g>
				<path class="st14" d="M29.5,72.2c8.5,0,15.3,6.9,15.3,15.3s-6.9,15.3-15.3,15.3S14.2,96,14.2,87.6S21.1,72.2,29.5,72.2
					 M29.5,60.5c-14.9,0-27,12.1-27,27c0,14.9,12.1,27,27,27s27-12.1,27-27C56.6,72.6,44.5,60.5,29.5,60.5L29.5,60.5z"/>
			</g>
		</g>
		<line class="st15" x1="108.5" y1="85.5" x2="29.5" y2="87.6"/>
		<g>
			<path class="st14" d="M164.6,41c-8.9,0-16.2-7.2-16.2-16.2s7.2-16.2,16.2-16.2c8.9,0,16.2,7.2,16.2,16.2S173.5,41,164.6,41z"/>
			<path class="st14" d="M164.6,14.6c5.7,0,10.3,4.6,10.3,10.3s-4.6,10.3-10.3,10.3c-5.7,0-10.3-4.6-10.3-10.3
				S158.9,14.6,164.6,14.6 M164.6,2.8c-12.2,0-22,9.9-22,22s9.9,22,22,22s22-9.9,22-22S176.8,2.8,164.6,2.8L164.6,2.8z"/>
		</g>
		<line class="st15" x1="164.6" y1="24.9" x2="108.5" y2="85.5"/>
		<g>
			<path class="st16" d="M108.5,117.2c-1.3,0-2.7-0.1-4-0.3c-15.8-2-27.7-15.5-27.7-31.5c0-17.5,14.2-31.7,31.8-31.7
				c17.5,0,31.7,14.2,31.7,31.7c0,15.6-11.6,29.1-27,31.4C111.6,117.1,110,117.2,108.5,117.2z"/>
			<path class="st16" d="M108.5,61c13.5,0,24.5,11,24.5,24.5c0,12-9,22.4-20.8,24.2c-1.2,0.2-2.4,0.3-3.6,0.3c-1,0-2.1-0.1-3.1-0.2
				C93.2,108.2,84,97.8,84,85.5C84,72,95,61,108.5,61 M108.5,46.4c-21.6,0-39,17.5-39,39c0,19.9,14.9,36.3,34.1,38.7
				c1.6,0.2,3.3,0.3,4.9,0.3c2,0,3.9-0.1,5.8-0.4c18.8-2.8,33.3-19,33.3-38.6C147.5,63.9,130,46.4,108.5,46.4L108.5,46.4z"/>
		</g>
		<line class="st13" x1="164" y1="179.3" x2="68.9" y2="179.3"/>
	</g>
</g>
</svg>
